<svg width="330" height="240" viewBox="0 0 330 240" fill="none" xmlns="http://www.w3.org/2000/svg">
<path d="M109.572 194.686C110.776 190.825 115.331 189.18 118.724 191.38L121.505 193.183C122.792 194.018 124.279 194.494 125.812 194.562L129.917 194.745C133.975 194.925 136.763 198.898 135.554 202.776V202.776C134.743 205.377 132.327 207.142 129.603 207.125L123.82 207.089C121.486 207.075 119.207 206.377 117.265 205.083L112.016 201.586C109.76 200.084 108.765 197.273 109.572 194.686V194.686Z" fill="url(#paint0_linear_337_2392)"/>
<rect width="140" height="11" rx="5.49999" transform="matrix(-1 8.74228e-08 8.74228e-08 1 237 207)" fill="url(#paint1_linear_337_2392)"/>
<rect width="40.7334" height="22.9985" rx="11.4993" transform="matrix(-0.99211 -0.125374 -0.125374 0.99211 210.004 104.109)" fill="url(#paint2_linear_337_2392)"/>
<path d="M170.093 104.498C175.302 104.499 180.144 107.179 182.911 111.592L190.215 123.241C190.737 124.073 191.339 124.853 192.012 125.568L201.341 135.489C210.425 145.149 203.576 160.992 190.315 160.992H145.298C132.625 160.992 125.564 146.349 133.455 136.432L140.501 127.579C141.339 126.526 142.033 125.365 142.564 124.129L147.063 113.656C149.452 108.096 154.922 104.493 160.974 104.495L170.093 104.498Z" fill="#FFFFDE"/>
<path d="M157.353 142.804C162.723 133.246 176.483 133.246 181.852 142.804L195.403 166.926L209.445 191.92C214.706 201.286 207.938 212.852 197.195 212.852H142.009C131.267 212.852 124.498 201.285 129.76 191.92L143.801 166.926L156.702 143.963L157.353 142.804Z" fill="#FFFFDE"/>
<rect x="111" y="121.711" width="44.9812" height="25.3969" rx="12.6984" transform="rotate(-35.7099 111 121.711)" fill="url(#paint3_linear_337_2392)"/>
<rect x="150.117" y="223.734" width="39.0021" height="22.021" rx="11.0105" transform="rotate(-102.014 150.117 223.734)" fill="url(#paint4_linear_337_2392)"/>
<rect width="39.0021" height="22.021" rx="11.0105" transform="matrix(0.208149 -0.978097 -0.978097 -0.208149 191.355 223.734)" fill="url(#paint5_linear_337_2392)"/>
<path d="M66.1564 101.461C66.6035 100.687 67.6297 100.482 68.3398 101.026L73.5148 104.987C73.7185 105.143 73.9417 105.271 74.1786 105.37L80.1964 107.871C81.0223 108.214 81.358 109.205 80.9109 109.98L77.9605 115.09C77.5884 115.734 76.796 116.003 76.1089 115.717L69.7341 113.068C69.4972 112.969 69.2741 112.841 69.0704 112.685L63.5885 108.489C62.9976 108.036 62.8339 107.216 63.206 106.571L66.1564 101.461Z" fill="#FF4F6F"/>
<path d="M228.193 60.2712C227.561 59.6388 227.629 58.5946 228.337 58.0494L233.503 54.0759C233.706 53.9195 233.888 53.7373 234.045 53.534L238.018 48.3685C238.564 47.6597 239.608 47.5918 240.24 48.2242L244.413 52.3967C244.939 52.9229 244.993 53.7577 244.539 54.3476L240.33 59.8194C240.174 60.0227 239.992 60.2049 239.788 60.3613L234.316 64.5704C233.727 65.0241 232.892 64.9699 232.366 64.4437L228.193 60.2712Z" fill="#FF4F6F"/>
<path d="M146.28 33.1488C147.171 33.0699 147.928 33.7923 147.891 34.6858L147.622 41.1972C147.611 41.4535 147.634 41.7102 147.689 41.9606L149.099 48.3233C149.292 49.1964 148.674 50.0406 147.783 50.1195L141.905 50.6399C141.164 50.7056 140.489 50.2112 140.328 49.4847L138.835 42.7447C138.779 42.4942 138.757 42.2376 138.767 41.9812L139.053 35.0837C139.084 34.3402 139.661 33.7349 140.402 33.6693L146.28 33.1488Z" fill="#00B506"/>
<path d="M118.156 17.4612C118.604 16.6867 119.63 16.482 120.34 17.0255L125.515 20.9866C125.719 21.1425 125.942 21.2714 126.179 21.3698L132.196 23.871C133.022 24.2142 133.358 25.2053 132.911 25.9797L129.96 31.09C129.588 31.7344 128.796 32.0029 128.109 31.7173L121.734 29.0678C121.497 28.9694 121.274 28.8406 121.07 28.6846L115.588 24.4886C114.998 24.0364 114.834 23.2159 115.206 22.5715L118.156 17.4612Z" fill="#FFC800"/>
<path d="M262.506 158.113C261.834 157.523 260.797 157.659 260.299 158.401L256.67 163.815C256.527 164.028 256.357 164.221 256.164 164.391L251.268 168.692C250.597 169.282 250.597 170.329 251.269 170.918L255.704 174.811C256.264 175.301 257.1 175.301 257.659 174.81L262.845 170.254C263.038 170.084 263.208 169.891 263.351 169.678L267.195 163.943C267.609 163.325 267.501 162.496 266.942 162.005L262.506 158.113Z" fill="#004CFF"/>
<path d="M181.42 137.897C181.42 142.984 177.297 147.107 172.21 147.107C167.124 147.107 163 142.984 163 137.897C163 132.81 167.124 133 172.21 133C177.297 133 181.42 132.81 181.42 137.897Z" fill="#313131"/>
<circle cx="220" cy="85" r="3" fill="#FFC800"/>
<circle cx="90" cy="136" r="4" fill="#004CFF"/>
<circle cx="233" cy="95" r="4" fill="#00B506"/>
<path d="M168.429 127.708C169.014 127.588 169.406 126.993 169.056 126.51V126.51C168.843 126.217 168.571 125.973 168.257 125.794C167.942 125.615 167.593 125.505 167.233 125.472C166.873 125.439 166.51 125.483 166.168 125.601C165.827 125.719 165.514 125.909 165.252 126.158C164.989 126.407 164.783 126.709 164.646 127.044C164.51 127.378 164.447 127.739 164.461 128.1V128.1C164.484 128.697 165.16 128.922 165.694 128.655L166.76 128.122C166.919 128.042 167.088 127.984 167.262 127.948L168.429 127.708Z" fill="#313131"/>
<path d="M173.742 127.708C173.158 127.588 172.766 126.993 173.116 126.51V126.51C173.329 126.217 173.601 125.973 173.915 125.794C174.23 125.615 174.578 125.505 174.939 125.472C175.299 125.439 175.662 125.483 176.004 125.601C176.345 125.719 176.658 125.909 176.92 126.158C177.183 126.407 177.389 126.709 177.526 127.044C177.662 127.378 177.725 127.739 177.711 128.1V128.1C177.688 128.697 177.012 128.922 176.478 128.655L175.412 128.122C175.253 128.042 175.084 127.984 174.91 127.948L173.742 127.708Z" fill="#313131"/>
<defs>
<linearGradient id="paint0_linear_337_2392" x1="136.068" y1="201.128" x2="110.089" y2="193.026" gradientUnits="userSpaceOnUse">
<stop stop-color="#313131"/>
<stop offset="1" stop-color="#5F5353"/>
</linearGradient>
<linearGradient id="paint1_linear_337_2392" x1="140" y1="5.49999" x2="0" y2="5.49999" gradientUnits="userSpaceOnUse">
<stop stop-color="#C2D4FF"/>
<stop offset="1" stop-color="#5F5353" stop-opacity="0.2"/>
</linearGradient>
<linearGradient id="paint2_linear_337_2392" x1="20.3667" y1="0" x2="20.3667" y2="22.9985" gradientUnits="userSpaceOnUse">
<stop stop-color="#313131"/>
<stop offset="1" stop-color="#979797"/>
</linearGradient>
<linearGradient id="paint3_linear_337_2392" x1="155.981" y1="134.409" x2="111" y2="134.409" gradientUnits="userSpaceOnUse">
<stop stop-color="#313131"/>
<stop offset="1" stop-color="#5F5353"/>
</linearGradient>
<linearGradient id="paint4_linear_337_2392" x1="189.119" y1="234.745" x2="150.117" y2="234.745" gradientUnits="userSpaceOnUse">
<stop stop-color="#FFFFDE"/>
<stop offset="1" stop-color="#F6F6CD"/>
</linearGradient>
<linearGradient id="paint5_linear_337_2392" x1="0" y1="11.0105" x2="39.0021" y2="11.0105" gradientUnits="userSpaceOnUse">
<stop stop-color="#F6F6CD"/>
<stop offset="1" stop-color="#FFFFDE"/>
</linearGradient>
</defs>
</svg>
