<svg width="298" height="80" viewBox="0 0 298 80" fill="none" xmlns="http://www.w3.org/2000/svg">
<g clip-path="url(#clip0_328_2501)">
<rect width="298" height="80" fill="url(#paint0_linear_328_2501)"/>
<g filter="url(#filter0_f_328_2501)">
<circle cx="272.563" cy="25.727" r="66.7114" fill="#5886F1" fill-opacity="0.4"/>
</g>
<g filter="url(#filter1_d_328_2501)">
<rect x="96.8008" y="71.0781" width="26.9787" height="36.5006" rx="3.17396" transform="rotate(-37.5853 96.8008 71.0781)" fill="url(#paint1_linear_328_2501)" fill-opacity="0.5" shape-rendering="crispEdges"/>
</g>
<g filter="url(#filter2_d_328_2501)">
<rect width="26.2333" height="35.4922" rx="3.08628" transform="matrix(-0.866025 -0.5 -0.5 0.866025 215.34 62.625)" fill="url(#paint2_linear_328_2501)" fill-opacity="0.5" shape-rendering="crispEdges"/>
</g>
<g filter="url(#filter3_d_328_2501)">
<rect width="25.2269" height="34.1305" rx="2.96787" transform="matrix(-0.952438 0.304731 0.304731 0.952438 62.6562 54.1328)" fill="url(#paint3_linear_328_2501)" fill-opacity="0.08" shape-rendering="crispEdges"/>
</g>
<g filter="url(#filter4_d_328_2501)">
<rect width="23.1366" height="31.3024" rx="2.72195" transform="matrix(-0.854291 -0.519796 -0.519796 0.854291 30.0273 17.0234)" fill="url(#paint4_linear_328_2501)" fill-opacity="0.2" shape-rendering="crispEdges"/>
</g>
<g filter="url(#filter5_d_328_2501)">
<rect width="22.3842" height="30.2844" rx="2.63343" transform="matrix(-0.882265 -0.470753 -0.470753 0.882265 269.012 46.0781)" fill="url(#paint5_linear_328_2501)" fill-opacity="0.2" shape-rendering="crispEdges"/>
</g>
<g filter="url(#filter6_d_328_2501)">
<rect x="121.633" y="47.2422" width="30.0978" height="40.7205" rx="3.54092" transform="rotate(-17.7376 121.633 47.2422)" fill="url(#paint6_linear_328_2501)" shape-rendering="crispEdges"/>
</g>
<rect x="147.824" y="59.6328" width="10.0159" height="5.00794" rx="2.50397" transform="rotate(-165.43 147.824 59.6328)" fill="url(#paint7_linear_328_2501)"/>
<path d="M136.592 65.1129C135.028 63.5731 134.97 61.0705 136.46 59.4596L139.092 56.6131C139.942 55.6935 141.169 55.2174 142.418 55.323L143.902 55.4485C144.253 55.4782 144.606 55.4621 144.953 55.4008L147.283 54.9886C148.448 54.7824 149.641 55.1533 150.484 55.9837V55.9837C151.922 57.4002 151.939 59.714 150.523 61.1518L144.533 67.2323C142.958 68.8309 140.385 68.8502 138.787 67.2754L136.592 65.1129Z" fill="#FFFFDC"/>
<rect x="134.582" y="73.3125" width="13.5442" height="6.77209" rx="3.38605" transform="rotate(-100.797 134.582 73.3125)" fill="url(#paint8_linear_328_2501)"/>
<circle cx="148.528" cy="54.8287" r="2.15476" transform="rotate(-45.4299 148.528 54.8287)" fill="#313131"/>
<circle cx="142.906" cy="59.2357" r="0.615645" transform="rotate(-45.4299 142.906 59.2357)" fill="#313131"/>
<g filter="url(#filter7_d_328_2501)">
<rect x="162.133" y="29.6406" width="30.0978" height="40.7205" rx="3.54092" transform="rotate(15 162.133 29.6406)" fill="url(#paint9_linear_328_2501)" shape-rendering="crispEdges"/>
</g>
<rect x="163.996" y="46.8125" width="9.15981" height="5.17173" rx="2.58587" transform="rotate(-37.3969 163.996 46.8125)" fill="url(#paint10_linear_328_2501)"/>
<path d="M171.904 43.4715C173.402 42.3639 175.54 42.9369 176.284 44.645L179.266 51.4999C180.234 53.7243 178.203 56.082 175.86 55.4541L166.867 53.0445C164.524 52.4166 163.943 49.3593 165.894 47.9168L171.904 43.4715Z" fill="#FFFFDE"/>
<path d="M169.378 49.8189C171.401 48.3222 174.291 49.0966 175.296 51.4047L179.326 60.6682C180.634 63.6741 177.889 66.8601 174.723 66.0117L162.57 62.7554C159.404 61.907 158.62 57.7754 161.255 55.8261L169.378 49.8189Z" fill="#FFFFDE"/>
<path d="M171.937 49.7399C171.685 50.6804 170.718 51.2385 169.777 50.9865C168.837 50.7345 168.279 49.7678 168.531 48.8273C168.783 47.8868 169.536 48.1262 170.476 48.3782C171.417 48.6302 172.189 48.7994 171.937 49.7399Z" fill="#313131"/>
<circle cx="171.915" cy="47.2167" r="0.503709" transform="rotate(-12.6923 171.915 47.2167)" fill="#313131"/>
<circle cx="170.512" cy="46.8417" r="0.503709" transform="rotate(-12.6923 170.512 46.8417)" fill="#313131"/>
<rect x="176.152" y="53.3281" width="9.81348" height="5.5408" rx="2.7704" transform="rotate(-105 176.152 53.3281)" fill="url(#paint11_linear_328_2501)"/>
</g>
<defs>
<filter id="filter0_f_328_2501" x="158.201" y="-88.6354" width="228.724" height="228.724" filterUnits="userSpaceOnUse" color-interpolation-filters="sRGB">
<feFlood flood-opacity="0" result="BackgroundImageFix"/>
<feBlend mode="normal" in="SourceGraphic" in2="BackgroundImageFix" result="shape"/>
<feGaussianBlur stdDeviation="23.8255" result="effect1_foregroundBlur_328_2501"/>
</filter>
<filter id="filter1_d_328_2501" x="94.9042" y="52.7245" width="50.6117" height="52.35" filterUnits="userSpaceOnUse" color-interpolation-filters="sRGB">
<feFlood flood-opacity="0" result="BackgroundImageFix"/>
<feColorMatrix in="SourceAlpha" type="matrix" values="0 0 0 0 0 0 0 0 0 0 0 0 0 0 0 0 0 0 127 0" result="hardAlpha"/>
<feOffset dx="1.58698" dy="1.58698"/>
<feGaussianBlur stdDeviation="2.38047"/>
<feComposite in2="hardAlpha" operator="out"/>
<feColorMatrix type="matrix" values="0 0 0 0 0 0 0 0 0 0 0 0 0 0 0 0 0 0 0.1 0"/>
<feBlend mode="normal" in2="BackgroundImageFix" result="effect1_dropShadow_328_2501"/>
<feBlend mode="normal" in="SourceGraphic" in2="effect1_dropShadow_328_2501" result="shape"/>
</filter>
<filter id="filter2_d_328_2501" x="172.918" y="47.5543" width="47.4659" height="50.8526" filterUnits="userSpaceOnUse" color-interpolation-filters="sRGB">
<feFlood flood-opacity="0" result="BackgroundImageFix"/>
<feColorMatrix in="SourceAlpha" type="matrix" values="0 0 0 0 0 0 0 0 0 0 0 0 0 0 0 0 0 0 127 0" result="hardAlpha"/>
<feOffset dx="1.54314" dy="1.54314"/>
<feGaussianBlur stdDeviation="2.31471"/>
<feComposite in2="hardAlpha" operator="out"/>
<feColorMatrix type="matrix" values="0 0 0 0 0 0 0 0 0 0 0 0 0 0 0 0 0 0 0.1 0"/>
<feBlend mode="normal" in2="BackgroundImageFix" result="effect1_dropShadow_328_2501"/>
<feBlend mode="normal" in="SourceGraphic" in2="effect1_dropShadow_328_2501" result="shape"/>
</filter>
<filter id="filter3_d_328_2501" x="36.4228" y="51.9306" width="41.8059" height="47.5677" filterUnits="userSpaceOnUse" color-interpolation-filters="sRGB">
<feFlood flood-opacity="0" result="BackgroundImageFix"/>
<feColorMatrix in="SourceAlpha" type="matrix" values="0 0 0 0 0 0 0 0 0 0 0 0 0 0 0 0 0 0 127 0" result="hardAlpha"/>
<feOffset dx="1.48393" dy="1.48393"/>
<feGaussianBlur stdDeviation="2.2259"/>
<feComposite in2="hardAlpha" operator="out"/>
<feColorMatrix type="matrix" values="0 0 0 0 0 0 0 0 0 0 0 0 0 0 0 0 0 0 0.05 0"/>
<feBlend mode="normal" in2="BackgroundImageFix" result="effect1_dropShadow_328_2501"/>
<feBlend mode="normal" in="SourceGraphic" in2="effect1_dropShadow_328_2501" result="shape"/>
</filter>
<filter id="filter4_d_328_2501" x="-7.71414" y="3.29367" width="42.1659" height="44.9002" filterUnits="userSpaceOnUse" color-interpolation-filters="sRGB">
<feFlood flood-opacity="0" result="BackgroundImageFix"/>
<feColorMatrix in="SourceAlpha" type="matrix" values="0 0 0 0 0 0 0 0 0 0 0 0 0 0 0 0 0 0 127 0" result="hardAlpha"/>
<feOffset dx="1.36098" dy="1.36098"/>
<feGaussianBlur stdDeviation="2.04146"/>
<feComposite in2="hardAlpha" operator="out"/>
<feColorMatrix type="matrix" values="0 0 0 0 0 0 0 0 0 0 0 0 0 0 0 0 0 0 0.05 0"/>
<feBlend mode="normal" in2="BackgroundImageFix" result="effect1_dropShadow_328_2501"/>
<feBlend mode="normal" in="SourceGraphic" in2="effect1_dropShadow_328_2501" result="shape"/>
</filter>
<filter id="filter5_d_328_2501" x="233.304" y="33.8353" width="40.0448" height="43.2987" filterUnits="userSpaceOnUse" color-interpolation-filters="sRGB">
<feFlood flood-opacity="0" result="BackgroundImageFix"/>
<feColorMatrix in="SourceAlpha" type="matrix" values="0 0 0 0 0 0 0 0 0 0 0 0 0 0 0 0 0 0 127 0" result="hardAlpha"/>
<feOffset dx="1.31672" dy="1.31672"/>
<feGaussianBlur stdDeviation="1.97507"/>
<feComposite in2="hardAlpha" operator="out"/>
<feColorMatrix type="matrix" values="0 0 0 0 0 0 0 0 0 0 0 0 0 0 0 0 0 0 0.05 0"/>
<feBlend mode="normal" in2="BackgroundImageFix" result="effect1_dropShadow_328_2501"/>
<feBlend mode="normal" in="SourceGraphic" in2="effect1_dropShadow_328_2501" result="shape"/>
</filter>
<filter id="filter6_d_328_2501" x="119.002" y="35.4435" width="49.8767" height="56.7556" filterUnits="userSpaceOnUse" color-interpolation-filters="sRGB">
<feFlood flood-opacity="0" result="BackgroundImageFix"/>
<feColorMatrix in="SourceAlpha" type="matrix" values="0 0 0 0 0 0 0 0 0 0 0 0 0 0 0 0 0 0 127 0" result="hardAlpha"/>
<feOffset dx="1.77046" dy="1.77046"/>
<feGaussianBlur stdDeviation="2.65569"/>
<feComposite in2="hardAlpha" operator="out"/>
<feColorMatrix type="matrix" values="0 0 0 0 0 0 0 0 0 0 0 0 0 0 0 0 0 0 0.1 0"/>
<feBlend mode="normal" in2="BackgroundImageFix" result="effect1_dropShadow_328_2501"/>
<feBlend mode="normal" in="SourceGraphic" in2="effect1_dropShadow_328_2501" result="shape"/>
</filter>
<filter id="filter7_d_328_2501" x="145.305" y="26.8966" width="48.6462" height="56.154" filterUnits="userSpaceOnUse" color-interpolation-filters="sRGB">
<feFlood flood-opacity="0" result="BackgroundImageFix"/>
<feColorMatrix in="SourceAlpha" type="matrix" values="0 0 0 0 0 0 0 0 0 0 0 0 0 0 0 0 0 0 127 0" result="hardAlpha"/>
<feOffset dx="-1.77046" dy="1.77046"/>
<feGaussianBlur stdDeviation="2.65569"/>
<feComposite in2="hardAlpha" operator="out"/>
<feColorMatrix type="matrix" values="0 0 0 0 0 0 0 0 0 0 0 0 0 0 0 0 0 0 0.1 0"/>
<feBlend mode="normal" in2="BackgroundImageFix" result="effect1_dropShadow_328_2501"/>
<feBlend mode="normal" in="SourceGraphic" in2="effect1_dropShadow_328_2501" result="shape"/>
</filter>
<linearGradient id="paint0_linear_328_2501" x1="36.5" y1="80" x2="225.5" y2="-4.95816e-07" gradientUnits="userSpaceOnUse">
<stop stop-color="#5886F1"/>
<stop offset="1" stop-color="#C2D4FF"/>
</linearGradient>
<linearGradient id="paint1_linear_328_2501" x1="110.29" y1="71.0781" x2="110.29" y2="107.579" gradientUnits="userSpaceOnUse">
<stop stop-color="white" stop-opacity="0.4"/>
<stop offset="1" stop-color="#C2D4FF"/>
</linearGradient>
<linearGradient id="paint2_linear_328_2501" x1="13.1167" y1="0" x2="13.1167" y2="35.4922" gradientUnits="userSpaceOnUse">
<stop stop-color="white" stop-opacity="0.9"/>
<stop offset="1" stop-color="#C2D4FF"/>
</linearGradient>
<linearGradient id="paint3_linear_328_2501" x1="12.6134" y1="0" x2="12.6134" y2="34.1305" gradientUnits="userSpaceOnUse">
<stop stop-color="white" stop-opacity="0.7"/>
<stop offset="1" stop-color="#C2D4FF" stop-opacity="0.5"/>
</linearGradient>
<linearGradient id="paint4_linear_328_2501" x1="1.55701" y1="4.17448" x2="11.5683" y2="31.3024" gradientUnits="userSpaceOnUse">
<stop stop-color="white" stop-opacity="0.4"/>
<stop offset="1" stop-color="#C2D4FF" stop-opacity="0.5"/>
</linearGradient>
<linearGradient id="paint5_linear_328_2501" x1="11.1921" y1="0" x2="11.1921" y2="30.2844" gradientUnits="userSpaceOnUse">
<stop stop-color="white" stop-opacity="0.9"/>
<stop offset="1" stop-color="#C2D4FF" stop-opacity="0.6"/>
</linearGradient>
<linearGradient id="paint6_linear_328_2501" x1="134.945" y1="87.3715" x2="149.875" y2="49.2046" gradientUnits="userSpaceOnUse">
<stop stop-color="white" stop-opacity="0.9"/>
<stop offset="1" stop-color="#C2D4FF" stop-opacity="0.5"/>
</linearGradient>
<linearGradient id="paint7_linear_328_2501" x1="152.832" y1="64.6408" x2="152.832" y2="59.6328" gradientUnits="userSpaceOnUse">
<stop stop-color="#313131"/>
<stop offset="1" stop-color="#979797"/>
</linearGradient>
<linearGradient id="paint8_linear_328_2501" x1="148.126" y1="76.6985" x2="134.582" y2="76.6985" gradientUnits="userSpaceOnUse">
<stop stop-color="#313131"/>
<stop offset="1" stop-color="#5F5353"/>
</linearGradient>
<linearGradient id="paint9_linear_328_2501" x1="177.182" y1="29.6406" x2="177.182" y2="70.3612" gradientUnits="userSpaceOnUse">
<stop stop-color="white" stop-opacity="0.9"/>
<stop offset="1" stop-color="#C2D4FF"/>
</linearGradient>
<linearGradient id="paint10_linear_328_2501" x1="168.576" y1="46.8125" x2="168.576" y2="51.9842" gradientUnits="userSpaceOnUse">
<stop stop-color="#313131"/>
<stop offset="1" stop-color="#979797"/>
</linearGradient>
<linearGradient id="paint11_linear_328_2501" x1="185.966" y1="56.0985" x2="176.152" y2="56.0985" gradientUnits="userSpaceOnUse">
<stop stop-color="#313131"/>
<stop offset="1" stop-color="#5F5353"/>
</linearGradient>
<clipPath id="clip0_328_2501">
<rect width="298" height="80" fill="white"/>
</clipPath>
</defs>
</svg>
