<svg width="298" height="80" viewBox="0 0 298 80" fill="none" xmlns="http://www.w3.org/2000/svg">
<g clip-path="url(#clip0_121_6)">
<rect width="298" height="80" fill="url(#paint0_linear_121_6)"/>
<g filter="url(#filter0_f_121_6)">
<circle cx="272.563" cy="25.7304" r="66.7114" fill="#5886F1" fill-opacity="0.4"/>
</g>
<g filter="url(#filter1_d_121_6)">
<rect x="96.8008" y="71.0811" width="26.9787" height="36.5006" rx="3.17396" transform="rotate(-37.5853 96.8008 71.0811)" fill="url(#paint1_linear_121_6)" fill-opacity="0.5" shape-rendering="crispEdges"/>
</g>
<g filter="url(#filter2_d_121_6)">
<rect width="26.2333" height="35.4922" rx="3.08628" transform="matrix(-0.866025 -0.5 -0.5 0.866025 215.34 62.6279)" fill="url(#paint2_linear_121_6)" fill-opacity="0.5" shape-rendering="crispEdges"/>
</g>
<g filter="url(#filter3_d_121_6)">
<rect width="25.2269" height="34.1305" rx="2.96787" transform="matrix(-0.952438 0.304731 0.304731 0.952438 62.6562 54.1357)" fill="url(#paint3_linear_121_6)" fill-opacity="0.08" shape-rendering="crispEdges"/>
</g>
<g filter="url(#filter4_d_121_6)">
<rect width="23.1366" height="31.3024" rx="2.72195" transform="matrix(-0.854291 -0.519796 -0.519796 0.854291 30.0273 17.0264)" fill="url(#paint4_linear_121_6)" fill-opacity="0.2" shape-rendering="crispEdges"/>
</g>
<g filter="url(#filter5_d_121_6)">
<rect width="22.3842" height="30.2844" rx="2.63343" transform="matrix(-0.882265 -0.470753 -0.470753 0.882265 269.012 46.0811)" fill="url(#paint5_linear_121_6)" fill-opacity="0.2" shape-rendering="crispEdges"/>
</g>
<g filter="url(#filter6_d_121_6)">
<rect x="121.629" y="47.2422" width="30.0978" height="40.7205" rx="3.54092" transform="rotate(-17.7376 121.629 47.2422)" fill="url(#paint6_linear_121_6)" shape-rendering="crispEdges"/>
</g>
<rect x="147.82" y="59.6323" width="10.0159" height="5.00794" rx="2.50397" transform="rotate(-165.43 147.82 59.6323)" fill="url(#paint7_linear_121_6)"/>
<path d="M136.588 65.1104C135.025 63.5706 134.966 61.0681 136.456 59.4571L139.088 56.6107C139.938 55.691 141.165 55.215 142.414 55.3205L143.898 55.4461C144.249 55.4757 144.602 55.4597 144.949 55.3984L147.279 54.9861C148.444 54.78 149.637 55.1508 150.48 55.9813V55.9813C151.918 57.3977 151.935 59.7115 150.519 61.1494L144.529 67.2298C142.954 68.8285 140.382 68.8478 138.783 67.273L136.588 65.1104Z" fill="#FFFFDC"/>
<rect x="134.582" y="73.3135" width="13.5442" height="6.77209" rx="3.38605" transform="rotate(-100.797 134.582 73.3135)" fill="url(#paint8_linear_121_6)"/>
<circle cx="148.528" cy="54.8267" r="2.15476" transform="rotate(-45.4299 148.528 54.8267)" fill="#313131"/>
<circle cx="142.902" cy="59.2313" r="0.615645" transform="rotate(-45.4299 142.902 59.2313)" fill="#313131"/>
<g filter="url(#filter7_d_121_6)">
<rect x="162.133" y="29.6475" width="30.0978" height="40.7205" rx="3.54092" transform="rotate(15 162.133 29.6475)" fill="url(#paint9_linear_121_6)" shape-rendering="crispEdges"/>
</g>
<rect x="164" y="46.814" width="9.15981" height="5.17173" rx="2.58587" transform="rotate(-37.3969 164 46.814)" fill="url(#paint10_linear_121_6)"/>
<path d="M171.908 43.4705C173.406 42.3629 175.544 42.936 176.287 44.644L179.27 51.4989C180.238 53.7233 178.207 56.081 175.863 55.4531L166.871 53.0435C164.527 52.4157 163.947 49.3583 165.898 47.9158L171.908 43.4705Z" fill="#FFFFDE"/>
<path d="M169.382 49.8243C171.405 48.3276 174.295 49.102 175.299 51.4101L179.33 60.6735C180.638 63.6795 177.893 66.8655 174.727 66.0171L162.574 62.7608C159.408 61.9124 158.624 57.7808 161.259 55.8315L169.382 49.8243Z" fill="#FFFFDE"/>
<path d="M171.941 49.7404C171.689 50.6809 170.722 51.239 169.781 50.987C168.841 50.735 168.283 49.7683 168.535 48.8278C168.787 47.8873 169.54 48.1267 170.48 48.3787C171.421 48.6307 172.193 48.7999 171.941 49.7404Z" fill="#313131"/>
<circle cx="171.915" cy="47.2172" r="0.503709" transform="rotate(-12.6923 171.915 47.2172)" fill="#313131"/>
<circle cx="170.516" cy="46.8451" r="0.503709" transform="rotate(-12.6923 170.516 46.8451)" fill="#313131"/>
<rect x="176.152" y="53.3281" width="9.81348" height="5.5408" rx="2.7704" transform="rotate(-105 176.152 53.3281)" fill="url(#paint11_linear_121_6)"/>
</g>
<defs>
<filter id="filter0_f_121_6" x="158.201" y="-88.632" width="228.724" height="228.725" filterUnits="userSpaceOnUse" color-interpolation-filters="sRGB">
<feFlood flood-opacity="0" result="BackgroundImageFix"/>
<feBlend mode="normal" in="SourceGraphic" in2="BackgroundImageFix" result="shape"/>
<feGaussianBlur stdDeviation="23.8255" result="effect1_foregroundBlur_121_6"/>
</filter>
<filter id="filter1_d_121_6" x="94.9042" y="52.7289" width="50.6117" height="52.3481" filterUnits="userSpaceOnUse" color-interpolation-filters="sRGB">
<feFlood flood-opacity="0" result="BackgroundImageFix"/>
<feColorMatrix in="SourceAlpha" type="matrix" values="0 0 0 0 0 0 0 0 0 0 0 0 0 0 0 0 0 0 127 0" result="hardAlpha"/>
<feOffset dx="1.58698" dy="1.58698"/>
<feGaussianBlur stdDeviation="2.38047"/>
<feComposite in2="hardAlpha" operator="out"/>
<feColorMatrix type="matrix" values="0 0 0 0 0 0 0 0 0 0 0 0 0 0 0 0 0 0 0.1 0"/>
<feBlend mode="normal" in2="BackgroundImageFix" result="effect1_dropShadow_121_6"/>
<feBlend mode="normal" in="SourceGraphic" in2="effect1_dropShadow_121_6" result="shape"/>
</filter>
<filter id="filter2_d_121_6" x="172.918" y="47.5543" width="47.4659" height="50.854" filterUnits="userSpaceOnUse" color-interpolation-filters="sRGB">
<feFlood flood-opacity="0" result="BackgroundImageFix"/>
<feColorMatrix in="SourceAlpha" type="matrix" values="0 0 0 0 0 0 0 0 0 0 0 0 0 0 0 0 0 0 127 0" result="hardAlpha"/>
<feOffset dx="1.54314" dy="1.54314"/>
<feGaussianBlur stdDeviation="2.31471"/>
<feComposite in2="hardAlpha" operator="out"/>
<feColorMatrix type="matrix" values="0 0 0 0 0 0 0 0 0 0 0 0 0 0 0 0 0 0 0.1 0"/>
<feBlend mode="normal" in2="BackgroundImageFix" result="effect1_dropShadow_121_6"/>
<feBlend mode="normal" in="SourceGraphic" in2="effect1_dropShadow_121_6" result="shape"/>
</filter>
<filter id="filter3_d_121_6" x="36.4228" y="51.9301" width="41.8059" height="47.5735" filterUnits="userSpaceOnUse" color-interpolation-filters="sRGB">
<feFlood flood-opacity="0" result="BackgroundImageFix"/>
<feColorMatrix in="SourceAlpha" type="matrix" values="0 0 0 0 0 0 0 0 0 0 0 0 0 0 0 0 0 0 127 0" result="hardAlpha"/>
<feOffset dx="1.48393" dy="1.48393"/>
<feGaussianBlur stdDeviation="2.2259"/>
<feComposite in2="hardAlpha" operator="out"/>
<feColorMatrix type="matrix" values="0 0 0 0 0 0 0 0 0 0 0 0 0 0 0 0 0 0 0.05 0"/>
<feBlend mode="normal" in2="BackgroundImageFix" result="effect1_dropShadow_121_6"/>
<feBlend mode="normal" in="SourceGraphic" in2="effect1_dropShadow_121_6" result="shape"/>
</filter>
<filter id="filter4_d_121_6" x="-7.71414" y="3.29612" width="42.1659" height="44.8978" filterUnits="userSpaceOnUse" color-interpolation-filters="sRGB">
<feFlood flood-opacity="0" result="BackgroundImageFix"/>
<feColorMatrix in="SourceAlpha" type="matrix" values="0 0 0 0 0 0 0 0 0 0 0 0 0 0 0 0 0 0 127 0" result="hardAlpha"/>
<feOffset dx="1.36098" dy="1.36098"/>
<feGaussianBlur stdDeviation="2.04146"/>
<feComposite in2="hardAlpha" operator="out"/>
<feColorMatrix type="matrix" values="0 0 0 0 0 0 0 0 0 0 0 0 0 0 0 0 0 0 0.05 0"/>
<feBlend mode="normal" in2="BackgroundImageFix" result="effect1_dropShadow_121_6"/>
<feBlend mode="normal" in="SourceGraphic" in2="effect1_dropShadow_121_6" result="shape"/>
</filter>
<filter id="filter5_d_121_6" x="233.304" y="33.8392" width="40.0448" height="43.2982" filterUnits="userSpaceOnUse" color-interpolation-filters="sRGB">
<feFlood flood-opacity="0" result="BackgroundImageFix"/>
<feColorMatrix in="SourceAlpha" type="matrix" values="0 0 0 0 0 0 0 0 0 0 0 0 0 0 0 0 0 0 127 0" result="hardAlpha"/>
<feOffset dx="1.31672" dy="1.31672"/>
<feGaussianBlur stdDeviation="1.97507"/>
<feComposite in2="hardAlpha" operator="out"/>
<feColorMatrix type="matrix" values="0 0 0 0 0 0 0 0 0 0 0 0 0 0 0 0 0 0 0.05 0"/>
<feBlend mode="normal" in2="BackgroundImageFix" result="effect1_dropShadow_121_6"/>
<feBlend mode="normal" in="SourceGraphic" in2="effect1_dropShadow_121_6" result="shape"/>
</filter>
<filter id="filter6_d_121_6" x="118.998" y="35.441" width="49.8767" height="56.7585" filterUnits="userSpaceOnUse" color-interpolation-filters="sRGB">
<feFlood flood-opacity="0" result="BackgroundImageFix"/>
<feColorMatrix in="SourceAlpha" type="matrix" values="0 0 0 0 0 0 0 0 0 0 0 0 0 0 0 0 0 0 127 0" result="hardAlpha"/>
<feOffset dx="1.77046" dy="1.77046"/>
<feGaussianBlur stdDeviation="2.65569"/>
<feComposite in2="hardAlpha" operator="out"/>
<feColorMatrix type="matrix" values="0 0 0 0 0 0 0 0 0 0 0 0 0 0 0 0 0 0 0.1 0"/>
<feBlend mode="normal" in2="BackgroundImageFix" result="effect1_dropShadow_121_6"/>
<feBlend mode="normal" in="SourceGraphic" in2="effect1_dropShadow_121_6" result="shape"/>
</filter>
<filter id="filter7_d_121_6" x="145.305" y="26.9015" width="48.6462" height="56.156" filterUnits="userSpaceOnUse" color-interpolation-filters="sRGB">
<feFlood flood-opacity="0" result="BackgroundImageFix"/>
<feColorMatrix in="SourceAlpha" type="matrix" values="0 0 0 0 0 0 0 0 0 0 0 0 0 0 0 0 0 0 127 0" result="hardAlpha"/>
<feOffset dx="-1.77046" dy="1.77046"/>
<feGaussianBlur stdDeviation="2.65569"/>
<feComposite in2="hardAlpha" operator="out"/>
<feColorMatrix type="matrix" values="0 0 0 0 0 0 0 0 0 0 0 0 0 0 0 0 0 0 0.1 0"/>
<feBlend mode="normal" in2="BackgroundImageFix" result="effect1_dropShadow_121_6"/>
<feBlend mode="normal" in="SourceGraphic" in2="effect1_dropShadow_121_6" result="shape"/>
</filter>
<linearGradient id="paint0_linear_121_6" x1="36.5" y1="80" x2="225.5" y2="-4.95816e-07" gradientUnits="userSpaceOnUse">
<stop stop-color="#3E93FA"/>
<stop offset="1" stop-color="#CBE2FF"/>
</linearGradient>
<linearGradient id="paint1_linear_121_6" x1="110.29" y1="71.0811" x2="110.29" y2="107.582" gradientUnits="userSpaceOnUse">
<stop stop-color="white" stop-opacity="0.4"/>
<stop offset="1" stop-color="#9BC8FF"/>
</linearGradient>
<linearGradient id="paint2_linear_121_6" x1="13.1167" y1="0" x2="13.1167" y2="35.4922" gradientUnits="userSpaceOnUse">
<stop stop-color="white" stop-opacity="0.9"/>
<stop offset="1" stop-color="#9BC8FF"/>
</linearGradient>
<linearGradient id="paint3_linear_121_6" x1="12.6134" y1="0" x2="12.6134" y2="34.1305" gradientUnits="userSpaceOnUse">
<stop stop-color="white" stop-opacity="0.7"/>
<stop offset="1" stop-color="#9BC8FF" stop-opacity="0.5"/>
</linearGradient>
<linearGradient id="paint4_linear_121_6" x1="1.55701" y1="4.17448" x2="11.5683" y2="31.3024" gradientUnits="userSpaceOnUse">
<stop stop-color="white" stop-opacity="0.4"/>
<stop offset="1" stop-color="#9BC8FF" stop-opacity="0.5"/>
</linearGradient>
<linearGradient id="paint5_linear_121_6" x1="11.1921" y1="0" x2="11.1921" y2="30.2844" gradientUnits="userSpaceOnUse">
<stop stop-color="white" stop-opacity="0.9"/>
<stop offset="1" stop-color="#9BC8FF" stop-opacity="0.6"/>
</linearGradient>
<linearGradient id="paint6_linear_121_6" x1="134.941" y1="87.3715" x2="149.871" y2="49.2046" gradientUnits="userSpaceOnUse">
<stop stop-color="white" stop-opacity="0.9"/>
<stop offset="1" stop-color="#9BC8FF" stop-opacity="0.5"/>
</linearGradient>
<linearGradient id="paint7_linear_121_6" x1="152.828" y1="64.6403" x2="152.828" y2="59.6323" gradientUnits="userSpaceOnUse">
<stop stop-color="#313131"/>
<stop offset="1" stop-color="#979797"/>
</linearGradient>
<linearGradient id="paint8_linear_121_6" x1="148.126" y1="76.6995" x2="134.582" y2="76.6995" gradientUnits="userSpaceOnUse">
<stop stop-color="#313131"/>
<stop offset="1" stop-color="#5F5353"/>
</linearGradient>
<linearGradient id="paint9_linear_121_6" x1="177.182" y1="29.6475" x2="177.182" y2="70.368" gradientUnits="userSpaceOnUse">
<stop stop-color="white" stop-opacity="0.9"/>
<stop offset="1" stop-color="#9BC8FF"/>
</linearGradient>
<linearGradient id="paint10_linear_121_6" x1="168.58" y1="46.814" x2="168.58" y2="51.9857" gradientUnits="userSpaceOnUse">
<stop stop-color="#313131"/>
<stop offset="1" stop-color="#979797"/>
</linearGradient>
<linearGradient id="paint11_linear_121_6" x1="185.966" y1="56.0985" x2="176.152" y2="56.0985" gradientUnits="userSpaceOnUse">
<stop stop-color="#313131"/>
<stop offset="1" stop-color="#5F5353"/>
</linearGradient>
<clipPath id="clip0_121_6">
<rect width="298" height="80" fill="white"/>
</clipPath>
</defs>
</svg>
