<svg width="198" height="167" viewBox="0 0 198 167" fill="none" xmlns="http://www.w3.org/2000/svg">
<rect x="61" y="13.6094" width="107" height="43" rx="20" fill="#FFFFDE"/>
<rect width="198" height="11" rx="5.49999" transform="matrix(-1 8.74228e-08 8.74228e-08 1 198 56.6094)" fill="url(#paint0_linear_462_5234)"/>
<path d="M30.5256 78.8695C28.6813 77.17 27.7171 74.7193 27.9091 72.2187L29.2365 54.9275C29.4426 52.2436 30.5482 49.7078 32.3744 47.7303L44.3277 34.7869C48.8082 29.9354 56.3732 29.6345 61.2247 34.1149L62.3893 35.1904C67.2408 39.6709 67.5416 47.2359 63.0612 52.0874L49.1911 67.1063C48.591 67.7561 48.0648 68.4706 47.6222 69.2365L43.1689 76.9438C40.5439 81.4868 34.3841 82.425 30.5256 78.8695V78.8695Z" fill="#F6F6CD"/>
<path d="M127.003 56.424C127.001 54.4176 127.918 52.5208 129.492 51.2764L140.375 42.6716C142.064 41.336 144.155 40.6094 146.308 40.6094L160.403 40.6094C165.686 40.6094 169.969 44.8922 169.969 50.1753L169.969 51.4435C169.969 56.7266 165.686 61.0094 160.403 61.0094L144.048 61.0094C143.34 61.0094 142.635 61.0879 141.944 61.2435L134.998 62.8094C130.903 63.7324 127.008 60.6215 127.003 56.424V56.424Z" fill="#F6F6CD"/>
<path d="M175.311 6.302C172.795 3.13676 167.952 3.24688 165.582 6.52322L163.64 9.20879C162.741 10.4518 161.526 11.4324 160.121 12.0494L156.359 13.702C152.64 15.3355 151.474 20.0468 154.002 23.2265V23.2265C155.697 25.359 158.587 26.1333 161.121 25.134L166.501 23.0129C168.672 22.1568 170.546 20.6839 171.89 18.7758L175.523 13.6197C177.084 11.4037 176.998 8.42386 175.311 6.302V6.302Z" fill="url(#paint1_linear_462_5234)"/>
<rect x="15.5352" y="24.3516" width="33.2768" height="18.7885" rx="9.39424" transform="rotate(-25.5482 15.5352 24.3516)" fill="url(#paint2_linear_462_5234)"/>
<path d="M51.1216 15.3872C46.8661 15.3885 42.9103 17.5779 40.6496 21.1832L34.6827 30.6991C34.2563 31.3792 33.7647 32.0161 33.2148 32.6009L25.5938 40.7052C18.1724 48.5973 23.768 61.54 34.6013 61.54H71.3775C81.7306 61.54 87.4991 49.577 81.0523 41.4761L75.2965 34.2436C74.6117 33.3831 74.0447 32.4351 73.6107 31.4246L69.9354 22.8693C67.9841 18.3271 63.5148 15.3837 58.5713 15.3851L51.1216 15.3872Z" fill="#FFFFDE"/>
<path d="M40.5336 45.0007C40.5336 49.1562 43.9023 52.5249 48.0578 52.5249C52.2133 52.5249 55.582 49.1562 55.582 45.0007C55.582 40.8452 52.2133 41 48.0578 41C43.9023 41 40.5336 40.8452 40.5336 45.0007Z" fill="#313131"/>
<circle cx="2.17407" cy="2.17407" r="2.17407" transform="matrix(-1 0 0 1 55.8828 33)" fill="#313131"/>
<circle cx="2.17407" cy="2.17407" r="2.17407" transform="matrix(-1 0 0 1 49.8828 33)" fill="#313131"/>
<path d="M12.5 53.3213C90.1274 48.1463 115.6 113.538 118.635 147.021L124.273 147.069C125.136 147.077 125.585 148.099 125.007 148.739L109.185 166.243C108.809 166.659 108.165 166.685 107.757 166.301L88.8574 148.5C88.1955 147.876 88.6424 146.764 89.5518 146.771L95.5586 146.822L95.5 146.821C91 68.9973 39 53.3213 12.5 53.3213Z" fill="url(#paint3_linear_462_5234)"/>
<path d="M70.5256 84.8695C68.6813 83.17 67.7171 80.7193 67.9091 78.2187L69.2365 60.9275C69.4426 58.2436 70.5482 55.7078 72.3744 53.7303L84.3277 40.7869C88.8082 35.9354 96.3732 35.6345 101.225 40.1149L102.389 41.1904C107.241 45.6709 107.542 53.2359 103.061 58.0874L89.1911 73.1063C88.591 73.7561 88.0648 74.4706 87.6222 75.2365L83.1689 82.9438C80.5439 87.4868 74.3841 88.425 70.5256 84.8695V84.8695Z" fill="#FFFFDE"/>
<rect width="36.747" height="20.7478" rx="10.3739" transform="matrix(-0.811983 -0.583681 -0.583681 0.811983 99.3945 29.4453)" fill="url(#paint4_linear_462_5234)"/>
<defs>
<linearGradient id="paint0_linear_462_5234" x1="198" y1="5.49999" x2="0" y2="5.49999" gradientUnits="userSpaceOnUse">
<stop stop-color="#C2D4FF"/>
<stop offset="1" stop-color="#5F5353" stop-opacity="0.2"/>
</linearGradient>
<linearGradient id="paint1_linear_462_5234" x1="152.927" y1="21.8752" x2="174.229" y2="4.94074" gradientUnits="userSpaceOnUse">
<stop stop-color="#313131"/>
<stop offset="1" stop-color="#5F5353"/>
</linearGradient>
<linearGradient id="paint2_linear_462_5234" x1="32.1736" y1="24.3516" x2="32.1736" y2="43.14" gradientUnits="userSpaceOnUse">
<stop stop-color="#313131"/>
<stop offset="1" stop-color="#979797"/>
</linearGradient>
<linearGradient id="paint3_linear_462_5234" x1="69.75" y1="53.0312" x2="69.75" y2="167.001" gradientUnits="userSpaceOnUse">
<stop stop-color="#80A6FF"/>
<stop offset="1" stop-color="#B5CBFF"/>
</linearGradient>
<linearGradient id="paint4_linear_462_5234" x1="36.747" y1="10.3739" x2="0" y2="10.3739" gradientUnits="userSpaceOnUse">
<stop stop-color="#313131"/>
<stop offset="1" stop-color="#5F5353"/>
</linearGradient>
</defs>
</svg>
