<svg xmlns="http://www.w3.org/2000/svg" width="167" height="89" fill="none" overflow="visible"><g><path d="M 32.125 20.589 L 29.989 24.658 L 27.794 54.186 C 27.733 54.826 27.062 55.466 26.268 55.699 C 21.329 56.978 11.324 58.198 6.201 58.023 C 1.748 57.849 -0.325 56.106 0.041 51.804 L 2.358 20.298 C 2.358 19.6 2.786 19.193 3.518 19.193 L 31.698 19.193 C 32.431 19.193 32.614 19.949 32.125 20.589 Z M 20.902 26.401 L 10.777 26.401 L 9.068 49.477 C 9.068 50.059 9.495 50.408 10.044 50.408 C 12.239 50.466 16.815 50.117 19.195 49.594 Z M 52.073 34.423 C 53.049 34.423 53.355 35.121 52.988 35.878 L 50.244 40.587 C 49.878 41.343 49.267 41.576 48.537 41.576 L 43.413 41.576 L 41.704 64.594 C 41.643 65.234 41.215 65.583 40.483 65.583 L 33.773 65.583 C 33.041 65.583 32.675 65.234 32.736 64.594 L 36.274 16.871 C 36.335 16.173 36.762 15.824 37.433 15.824 L 44.204 15.824 C 44.875 15.824 45.302 16.173 45.241 16.871 L 43.96 34.426 L 52.073 34.426 Z M 85.383 42.853 C 85.138 43.551 84.467 43.9 83.857 43.9 L 58.321 43.9 C 57.832 43.9 57.559 43.551 57.617 42.911 L 57.984 37.681 C 58.045 37.041 58.26 36.75 58.809 36.75 L 63.484 36.75 L 64.4 24.37 L 59.724 24.37 C 59.236 24.37 58.87 24.079 58.87 23.439 L 59.297 18.209 C 59.297 17.569 59.724 17.278 60.274 17.278 L 88.493 17.278 C 89.042 17.278 89.348 17.86 88.92 18.5 L 86.786 23.383 C 86.603 24.081 85.871 24.372 85.26 24.372 L 83.429 24.372 L 82.514 36.752 L 87.028 36.752 C 87.577 36.752 87.944 37.334 87.516 38.032 L 85.383 42.858 Z M 108.196 60.769 C 108.868 61.059 109.173 61.467 108.746 62.223 L 105.818 67.337 C 105.452 67.86 104.964 68.151 104.414 67.86 L 85.81 60.187 C 80.321 64.722 72.086 67.104 64.156 67.511 C 63.243 67.628 62.935 67.337 62.999 66.523 L 63.426 61.057 C 63.426 60.534 63.792 60.126 64.525 60.068 C 75.26 59.196 81.603 55.185 82.213 48.267 C 82.274 47.627 82.702 47.337 83.251 47.337 L 91.486 47.337 C 92.036 47.337 92.463 47.802 92.402 48.558 C 92.158 50.766 91.547 52.744 90.571 54.545 L 108.199 60.764 Z M 72.269 24.367 L 71.353 36.748 L 74.647 36.748 L 75.563 24.367 Z M 93.388 26.808 L 94.06 17.625 C 94.121 16.927 94.67 16.578 95.28 16.578 L 101.257 16.578 C 101.868 16.578 102.112 16.927 102.051 17.625 L 100.22 43.083 C 100.159 43.781 99.792 44.13 99.06 44.13 L 93.205 44.13 C 92.595 44.13 92.168 43.781 92.229 43.083 L 92.9 33.842 L 88.447 33.842 C 87.775 33.842 87.409 33.493 87.47 32.853 L 87.775 27.853 C 87.836 27.155 88.019 26.806 88.752 26.806 L 93.388 26.806 Z M 113.048 15.822 C 113.658 15.822 114.085 16.171 114.024 16.869 L 111.707 48.898 C 111.646 49.538 111.219 49.945 110.547 49.945 L 104.387 49.945 C 103.716 49.945 103.474 49.538 103.533 48.898 L 105.85 16.869 C 105.911 16.171 106.216 15.822 106.888 15.822 Z M 166.266 55.292 C 166.876 55.292 167.242 55.757 166.815 56.513 L 163.765 61.627 C 163.399 62.209 162.85 62.674 162.12 62.674 L 118.202 62.674 C 117.469 62.674 116.981 62.325 117.042 61.627 L 117.408 56.28 C 117.469 55.641 117.835 55.292 118.507 55.292 Z M 119.483 47.269 L 119.85 41.399 C 119.911 40.934 119.972 40.585 120.643 40.294 C 127.413 37.213 130.402 31.517 130.768 26.517 L 130.829 25.994 L 123.998 25.994 C 123.387 25.994 122.96 25.645 123.021 25.005 L 123.387 19.716 C 123.448 19.077 123.754 18.786 124.486 18.786 L 165.965 18.786 C 166.759 18.786 167.064 19.367 166.698 20.065 L 164.014 24.947 C 163.648 25.645 162.916 25.994 162.125 25.994 L 157.488 25.994 L 157.488 26.343 C 157.366 28.318 156.817 30.47 155.962 32.62 L 165.965 41.571 C 166.392 41.978 166.392 42.385 165.965 42.851 L 161.634 47.444 C 161.146 47.967 160.718 47.967 160.291 47.56 L 151.873 39.538 C 148.396 44.014 143.271 47.909 136.867 49.884 C 135.89 50.175 135.341 49.71 135.405 48.896 L 135.771 43.025 C 135.832 42.56 135.893 42.211 136.564 41.92 C 137.419 41.571 138.21 41.164 138.942 40.757 L 135.466 37.502 C 132.294 42.036 127.413 46.103 120.948 48.198 C 119.972 48.547 119.422 48.081 119.483 47.267 Z M 148.516 25.994 L 139.792 25.994 L 139.792 26.343 C 139.67 27.681 139.426 29.074 138.937 30.529 L 144.975 35.529 C 147.109 32.739 148.208 29.542 148.452 26.52 L 148.513 25.996 Z" fill="rgb(0, 84, 255)" stroke-width="0.96" stroke="rgb(0,41,56)" stroke-linecap="round" stroke-linejoin="round" stroke-dasharray=""></path><path d="M 70.072 20.94 L 79.45 20.94 L 79.45 38.812 L 70.072 38.812 Z" fill="rgb(0, 84, 255)"></path><path d="M 108.196 60.766 C 108.868 61.057 109.173 61.464 108.746 62.221 L 105.818 67.335 C 105.452 67.858 104.964 68.149 104.414 67.858 L 85.81 60.185 C 80.321 64.719 72.086 67.102 64.156 67.509 C 63.243 67.625 62.935 67.335 62.999 66.52 L 63.426 61.055 C 63.426 60.531 63.792 60.124 64.525 60.066 C 75.26 59.193 81.603 55.182 82.213 48.265 C 82.274 47.625 82.702 47.334 83.251 47.334 L 91.486 47.334 C 92.036 47.334 92.463 47.8 92.402 48.556 C 92.158 50.764 91.547 52.742 90.571 54.542 L 108.199 60.762 Z M 32.125 20.587 L 29.989 24.656 L 27.794 54.184 C 27.733 54.824 27.062 55.464 26.268 55.696 C 21.329 56.976 11.324 58.195 6.201 58.021 C 1.748 57.846 -0.325 56.104 0.041 51.802 L 2.358 20.296 C 2.358 19.598 2.786 19.191 3.518 19.191 L 31.698 19.191 C 32.431 19.191 32.614 19.947 32.125 20.587 Z M 20.902 26.399 L 10.777 26.399 L 9.068 49.475 C 9.068 50.057 9.495 50.406 10.044 50.406 C 12.239 50.464 16.815 50.115 19.195 49.591 Z M 52.073 34.421 C 53.049 34.421 53.355 35.119 52.988 35.875 L 50.244 40.585 C 49.878 41.341 49.267 41.573 48.537 41.573 L 43.413 41.573 L 41.704 64.591 C 41.643 65.231 41.215 65.58 40.483 65.58 L 33.773 65.58 C 33.041 65.58 32.675 65.231 32.736 64.591 L 36.274 16.869 C 36.335 16.171 36.762 15.822 37.433 15.822 L 44.204 15.822 C 44.875 15.822 45.302 16.171 45.241 16.869 L 43.96 34.423 L 52.073 34.423 Z" fill="rgb(0, 84, 255)" stroke-width="0.96" stroke="rgb(0,41,56)" stroke-linecap="round" stroke-linejoin="round" stroke-dasharray=""></path><path d="M 123.634 7.967 L 114.718 7.79 L 122.885 5.952 L 119.459 2.359 L 125.211 4.283 L 127.858 0 L 128.669 4.835 L 135.881 3.818 L 130.341 6.38 L 134.921 9.623 L 127.67 8.055 L 124.196 12.964 Z M 45.976 77.386 L 54.754 77.702 L 46.667 79.345 L 49.954 82.872 L 44.336 80.92 L 41.626 85.017 L 40.942 80.334 L 33.815 81.199 L 39.333 78.812 L 34.899 75.606 L 42.004 77.237 L 45.542 72.549 Z" fill="rgb(247,250,243)" stroke-width="0.96" stroke="rgb(0,41,56)" stroke-linecap="round" stroke-linejoin="round" stroke-dasharray=""></path><path d="M 32.125 20.587 L 29.989 24.656 L 27.794 54.184 C 27.733 54.824 27.062 55.464 26.268 55.696 C 21.329 56.976 11.324 58.195 6.201 58.021 C 1.748 57.846 -0.325 56.104 0.041 51.802 L 2.358 20.296 C 2.358 19.598 2.786 19.191 3.518 19.191 L 31.698 19.191 C 32.431 19.191 32.614 19.947 32.125 20.587 Z M 20.902 26.399 L 10.777 26.399 L 9.068 49.475 C 9.068 50.057 9.495 50.406 10.044 50.406 C 12.239 50.464 16.815 50.115 19.195 49.591 Z M 52.073 34.421 C 53.049 34.421 53.355 35.119 52.988 35.875 L 50.244 40.585 C 49.878 41.341 49.267 41.573 48.537 41.573 L 43.413 41.573 L 41.704 64.591 C 41.643 65.231 41.215 65.58 40.483 65.58 L 33.773 65.58 C 33.041 65.58 32.675 65.231 32.736 64.591 L 36.274 16.869 C 36.335 16.171 36.762 15.822 37.433 15.822 L 44.204 15.822 C 44.875 15.822 45.302 16.171 45.241 16.869 L 43.96 34.423 L 52.073 34.423 Z M 108.196 60.766 C 108.868 61.057 109.173 61.464 108.746 62.221 L 105.818 67.335 C 105.452 67.858 104.964 68.149 104.414 67.858 L 85.81 60.185 C 80.321 64.719 72.086 67.102 64.156 67.509 C 63.243 67.625 62.935 67.335 62.999 66.52 L 63.426 61.055 C 63.426 60.531 63.792 60.124 64.525 60.066 C 75.26 59.193 81.603 55.182 82.213 48.265 C 82.274 47.625 82.702 47.334 83.251 47.334 L 91.486 47.334 C 92.036 47.334 92.463 47.8 92.402 48.556 C 92.158 50.764 91.547 52.742 90.571 54.542 L 108.199 60.762 Z" fill="rgb(0, 84, 255)" stroke-width="0.96" stroke="rgb(0,41,56)" stroke-linecap="round" stroke-linejoin="round" stroke-dasharray=""></path><path d="M 116.461 53.398 C 149.429 78.531 147.232 88.915 147.232 88.915 C 147.232 88.915 151.626 86.909 151.597 85.024 C 151.563 82.721 145.032 68.061 116.461 53.4" fill="rgb(247,250,243)" stroke-width="0.96" stroke="rgb(0,41,56)" stroke-linecap="round" stroke-linejoin="round" stroke-dasharray=""></path><path d="M 15.776 6.631 C 15.776 6.631 5.739 15.891 71.421 54.179 C 135.458 91.509 151.325 85.597 151.325 85.597 C 151.325 85.597 148.94 88.577 147.253 88.91 C 145.566 89.243 125.362 90.294 68.533 56.839 C 5.297 19.614 10.776 11.499 11.34 10.191 C 11.904 8.886 15.774 6.631 15.774 6.631 Z" fill="rgb(247,250,243)" stroke-width="0.96" stroke="rgb(0,41,56)" stroke-linecap="round" stroke-linejoin="round" stroke-dasharray=""></path><path d="M 71.92 27.939 C 30.736 2.896 18.216 5.321 17.279 5.709 C 16.392 6.077 12.696 8.662 12.696 8.662 C 12.696 8.662 21.947 2.81 69.505 30.728 L 65.357 31.508 C 65.155 31.508 64.976 31.622 64.923 31.789 C 64.869 31.959 64.95 32.141 65.123 32.234 L 69.313 33.641 L 66.974 38.139 C 66.859 38.285 66.874 38.483 67.008 38.618 C 67.145 38.753 67.367 38.793 67.55 38.716 L 72.362 35.44 L 74.223 40.652 C 74.252 40.835 74.425 40.975 74.633 40.991 L 74.657 40.991 C 74.877 40.998 75.07 40.866 75.111 40.677 L 75.111 34.781 L 81.825 35.468 C 82.028 35.477 82.209 35.368 82.272 35.202 C 82.336 35.037 82.265 34.853 82.099 34.753 L 76.947 31.675 L 80.61 26.919 C 80.7 26.757 80.651 26.559 80.49 26.442 C 80.329 26.326 80.097 26.319 79.931 26.428 L 75.111 28.885 L 73.737 22.336 C 73.649 22.164 73.434 22.068 73.224 22.11 C 73.014 22.15 72.867 22.315 72.875 22.501 L 71.918 27.939 Z" fill="rgb(247,250,243)" stroke-width="0.96" stroke="rgb(0,41,56)" stroke-linecap="round" stroke-linejoin="round" stroke-dasharray=""></path><path d="M 32.125 20.587 L 29.989 24.656 L 27.794 54.184 C 27.733 54.824 27.062 55.464 26.268 55.696 C 21.329 56.976 11.324 58.195 6.201 58.021 C 1.748 57.846 -0.325 56.104 0.041 51.802 L 2.358 20.296 C 2.358 19.598 2.786 19.191 3.518 19.191 L 31.698 19.191 C 32.431 19.191 32.614 19.947 32.125 20.587 Z M 20.902 26.399 L 10.777 26.399 L 9.068 49.475 C 9.068 50.057 9.495 50.406 10.044 50.406 C 12.239 50.464 16.815 50.115 19.195 49.591 Z M 52.073 34.421 C 53.049 34.421 53.355 35.119 52.988 35.875 L 50.244 40.585 C 49.878 41.341 49.267 41.573 48.537 41.573 L 43.413 41.573 L 41.704 64.591 C 41.643 65.231 41.215 65.58 40.483 65.58 L 33.773 65.58 C 33.041 65.58 32.675 65.231 32.736 64.591 L 36.274 16.869 C 36.335 16.171 36.762 15.822 37.433 15.822 L 44.204 15.822 C 44.875 15.822 45.302 16.171 45.241 16.869 L 43.96 34.423 L 52.073 34.423 Z M 108.196 60.766 C 108.868 61.057 109.173 61.464 108.746 62.221 L 105.818 67.335 C 105.452 67.858 104.964 68.149 104.414 67.858 L 85.81 60.185 C 80.321 64.719 72.086 67.102 64.156 67.509 C 63.243 67.625 62.935 67.335 62.999 66.52 L 63.426 61.055 C 63.426 60.531 63.792 60.124 64.525 60.066 C 75.26 59.193 81.603 55.182 82.213 48.265 C 82.274 47.625 82.702 47.334 83.251 47.334 L 91.486 47.334 C 92.036 47.334 92.463 47.8 92.402 48.556 C 92.158 50.764 91.547 52.742 90.571 54.542 L 108.199 60.762 Z" fill="rgb(0, 84, 255)" stroke-width="0.96" stroke="rgb(0,41,56)" stroke-linecap="round" stroke-linejoin="round" stroke-dasharray=""></path><g transform="translate(12.723 4.886)"><path d="M 18.04 0 L 44.409 0 L 44.409 18.846 L 18.04 18.846 Z" fill="transparent"></path><path d="M 59.224 23.034 C 18.04 -2.008 5.52 0.416 4.583 0.805 C 3.696 1.173 0 3.758 0 3.758 C 0 3.758 9.251 -2.094 56.81 25.824 L 52.661 26.603 C 52.459 26.603 52.28 26.717 52.227 26.885 C 52.173 27.055 52.254 27.236 52.427 27.329 L 56.617 28.737 L 54.278 33.235 C 54.163 33.381 54.178 33.579 54.312 33.714 C 54.449 33.849 54.671 33.888 54.854 33.812 L 59.666 30.536 L 61.527 35.747 C 61.556 35.931 61.729 36.071 61.937 36.087 L 61.961 36.087 C 62.181 36.094 62.374 35.961 62.415 35.773 L 62.415 29.877 L 69.129 30.563 C 69.332 30.573 69.513 30.463 69.576 30.298 C 69.64 30.133 69.569 29.949 69.403 29.849 L 64.251 26.771 L 67.914 22.015 C 68.004 21.852 67.955 21.655 67.794 21.538 C 67.633 21.422 67.401 21.415 67.235 21.524 L 62.415 23.981 L 61.041 17.432 C 60.953 17.259 60.738 17.164 60.528 17.206 C 60.318 17.245 60.172 17.411 60.179 17.597 L 59.222 23.034 Z" fill="rgb(247,250,243)" stroke-width="0.96" stroke="rgb(0,41,56)" stroke-linecap="round" stroke-linejoin="round" stroke-dasharray=""></path></g></g></svg>