<?xml version="1.0" encoding="UTF-8"?>
<svg id="_레이어_2" data-name="레이어 2" xmlns="http://www.w3.org/2000/svg" xmlns:xlink="http://www.w3.org/1999/xlink" viewBox="0 0 687 385.5">
  <defs>
    <style>
      .cls-1 {
        fill: none;
      }

      .cls-2 {
        fill: #f7faf3;
      }

      .cls-2, .cls-3 {
        stroke: #002938;
        stroke-linecap: round;
        stroke-linejoin: round;
        stroke-width: 3px;
      }

      .cls-4, .cls-3 {
        fill: #3e93fa;
      }

      .cls-5 {
        clip-path: url(#clippath);
      }
    </style>
    <clipPath id="clippath">
      <rect class="cls-1" x="127.5" y="22.71" width="108" height="81"/>
    </clipPath>
  </defs>
  <g id="Layer_1" data-name="Layer 1">
    <g>
      <g>
        <g>
          <g>
            <g>
              <path class="cls-3" d="M133.08,90.24l-8.75,17.49-8.99,126.91c-.25,2.75-3,5.5-6.25,6.5-20.23,5.5-61.21,10.74-82.19,9.99-18.24-.75-26.73-8.24-25.23-26.73L11.16,88.99c0-3,1.75-4.75,4.75-4.75h115.42c3,0,3.75,3.25,1.75,6ZM87.11,115.22h-41.47l-7,99.18c0,2.5,1.75,4,4,4,8.99.25,27.73-1.25,37.48-3.5l6.99-99.68ZM214.78,149.7c4,0,5.25,3,3.75,6.25l-11.24,20.24c-1.5,3.25-4,4.25-6.99,4.25h-20.99l-7,98.93c-.25,2.75-2,4.25-5,4.25h-27.48c-3,0-4.5-1.5-4.25-4.25l14.49-205.11c.25-3,2-4.5,4.75-4.5h27.73c2.75,0,4.5,1.5,4.25,4.5l-5.25,75.45h33.23Z"/>
              <path class="cls-3" d="M351.21,185.92c-1,3-3.75,4.5-6.25,4.5h-104.59c-2,0-3.12-1.5-2.88-4.25l1.5-22.48c.25-2.75,1.13-4,3.38-4h19.15l3.75-53.21h-19.15c-2,0-3.5-1.25-3.5-4l1.75-22.48c0-2.75,1.75-4,4-4h115.58c2.25,0,3.5,2.5,1.75,5.25l-8.74,20.99c-.75,3-3.75,4.25-6.25,4.25h-7.5l-3.75,53.21h18.49c2.25,0,3.75,2.5,2,5.5l-8.74,20.74ZM444.65,262.93c2.75,1.25,4,3,2.25,6.25l-11.99,21.98c-1.5,2.25-3.5,3.5-5.75,2.25l-76.2-32.98c-22.48,19.49-56.21,29.73-88.69,31.48-3.74.5-5-.75-4.74-4.25l1.75-23.49c0-2.25,1.5-4,4.5-4.25,43.97-3.75,69.95-20.99,72.45-50.72.25-2.75,2-4,4.25-4h33.73c2.25,0,4,2,3.75,5.25-1,9.49-3.5,17.99-7.5,25.73l72.2,26.73ZM297.5,106.48l-3.75,53.21h13.49l3.75-53.21h-13.49ZM383.99,116.97l2.75-39.47c.25-3,2.5-4.5,5-4.5h24.48c2.5,0,3.5,1.5,3.25,4.5l-7.5,109.42c-.25,3-1.75,4.5-4.75,4.5h-23.98c-2.5,0-4.25-1.5-4-4.5l2.75-39.72h-18.24c-2.75,0-4.25-1.5-4-4.25l1.25-21.49c.25-3,1-4.5,4-4.5h18.99ZM464.52,69.75c2.5,0,4.25,1.5,4,4.5l-9.49,137.66c-.25,2.75-2,4.5-4.75,4.5h-25.23c-2.75,0-3.74-1.75-3.5-4.5l9.49-137.66c.25-3,1.5-4.5,4.25-4.5h25.23Z"/>
              <path class="cls-3" d="M682.49,239.39c2.5,0,4,2,2.25,5.25l-12.49,21.98c-1.5,2.5-3.75,4.5-6.74,4.5h-179.88c-3,0-5-1.5-4.75-4.5l1.5-22.98c.25-2.75,1.75-4.25,4.5-4.25h195.61ZM490.87,204.91l1.5-25.23c.25-2,.5-3.5,3.25-4.75,27.73-13.24,39.97-37.72,41.47-59.21l.25-2.25h-27.98c-2.5,0-4.25-1.5-4-4.25l1.5-22.73c.25-2.75,1.5-4,4.5-4h169.89c3.25,0,4.5,2.5,3,5.5l-10.99,20.98c-1.5,3-4.5,4.5-7.74,4.5h-18.99v1.5c-.5,8.49-2.75,17.74-6.25,26.98l40.97,38.47c1.75,1.75,1.75,3.5,0,5.5l-17.74,19.74c-2,2.25-3.75,2.25-5.5.5l-34.48-34.48c-14.24,19.24-35.23,35.98-61.46,44.47-4,1.25-6.25-.75-5.99-4.25l1.5-25.23c.25-2,.5-3.5,3.25-4.75,3.5-1.5,6.74-3.25,9.74-5l-14.24-13.99c-12.99,19.49-32.98,36.97-59.46,45.97-4,1.5-6.25-.5-6-4ZM609.79,113.47h-35.73v1.5c-.5,5.75-1.5,11.74-3.5,17.99l24.73,21.49c8.74-11.99,13.24-25.73,14.24-38.72l.25-2.25Z"/>
              <rect class="cls-4" x="288.63" y="91.51" width="38.41" height="76.81"/>
            </g>
            <path class="cls-3" d="M444.65,262.93c2.75,1.25,4,3,2.25,6.25l-11.99,21.98c-1.5,2.25-3.5,3.5-5.75,2.25l-76.2-32.98c-22.48,19.49-56.21,29.73-88.69,31.48-3.74.5-5-.75-4.74-4.25l1.75-23.49c0-2.25,1.5-4,4.5-4.25,43.97-3.75,69.95-20.99,72.45-50.72.25-2.75,2-4,4.25-4h33.73c2.25,0,4,2,3.75,5.25-1,9.49-3.5,17.99-7.5,25.73l72.2,26.73Z"/>
            <path class="cls-3" d="M133.08,90.24l-8.75,17.49-8.99,126.91c-.25,2.75-3,5.5-6.25,6.5-20.23,5.5-61.21,10.74-82.19,9.99-18.24-.75-26.73-8.24-25.23-26.73L11.16,88.99c0-3,1.75-4.75,4.75-4.75h115.42c3,0,3.75,3.25,1.75,6ZM87.11,115.22h-41.47l-7,99.18c0,2.5,1.75,4,4,4,8.99.25,27.73-1.25,37.48-3.5l6.99-99.68ZM214.78,149.7c4,0,5.25,3,3.75,6.25l-11.24,20.24c-1.5,3.25-4,4.25-6.99,4.25h-20.99l-7,98.93c-.25,2.75-2,4.25-5,4.25h-27.48c-3,0-4.5-1.5-4.25-4.25l14.49-205.11c.25-3,2-4.5,4.75-4.5h27.73c2.75,0,4.5,1.5,4.25,4.5l-5.25,75.45h33.23Z"/>
          </g>
          <polygon class="cls-2" points="507.87 35.74 471.35 34.97 504.8 27.08 490.77 11.63 514.33 19.91 525.17 1.5 528.49 22.28 558.03 17.91 535.33 28.92 554.1 42.85 524.39 36.12 510.17 57.22 507.87 35.74"/>
          <polygon class="cls-2" points="189.8 334.1 225.75 335.46 192.63 342.52 206.09 357.68 183.08 349.29 171.98 366.89 169.18 346.76 139.99 350.49 162.59 340.23 144.43 326.45 173.53 333.46 188.02 313.31 189.8 334.1"/>
        </g>
        <path class="cls-3" d="M133.08,90.24l-8.75,17.49-8.99,126.91c-.25,2.75-3,5.5-6.25,6.5-20.23,5.5-61.21,10.74-82.19,9.99-18.24-.75-26.73-8.24-25.23-26.73L11.16,88.99c0-3,1.75-4.75,4.75-4.75h115.42c3,0,3.75,3.25,1.75,6ZM87.11,115.22h-41.47l-7,99.18c0,2.5,1.75,4,4,4,8.99.25,27.73-1.25,37.48-3.5l6.99-99.68ZM214.78,149.7c4,0,5.25,3,3.75,6.25l-11.24,20.24c-1.5,3.25-4,4.25-6.99,4.25h-20.99l-7,98.93c-.25,2.75-2,4.25-5,4.25h-27.48c-3,0-4.5-1.5-4.25-4.25l14.49-205.11c.25-3,2-4.5,4.75-4.5h27.73c2.75,0,4.5,1.5,4.25,4.5l-5.25,75.45h33.23Z"/>
        <path class="cls-3" d="M444.65,262.93c2.75,1.25,4,3,2.25,6.25l-11.99,21.98c-1.5,2.25-3.5,3.5-5.75,2.25l-76.2-32.98c-22.48,19.49-56.21,29.73-88.69,31.48-3.74.5-5-.75-4.74-4.25l1.75-23.49c0-2.25,1.5-4,4.5-4.25,43.97-3.75,69.95-20.99,72.45-50.72.25-2.75,2-4,4.25-4h33.73c2.25,0,4,2,3.75,5.25-1,9.49-3.5,17.99-7.5,25.73l72.2,26.73Z"/>
      </g>
      <g>
        <path class="cls-2" d="M478.59,230.97c135.03,108.02,126.03,152.65,126.03,152.65,0,0,18-8.62,17.88-16.72-.14-9.9-26.89-72.91-143.91-135.92"/>
        <path class="cls-2" d="M66.11,29.98s-41.11,39.8,227.91,204.36c262.28,160.44,327.27,135.03,327.27,135.03,0,0-9.77,12.81-16.68,14.24-6.91,1.43-89.66,5.95-322.42-137.84C23.19,85.78,45.63,50.9,47.95,45.29c2.31-5.61,18.16-15.3,18.16-15.3Z"/>
      </g>
      <path class="cls-2" d="M296.18,121.71C127.5,14.09,76.22,24.5,72.38,26.17c-3.63,1.58-18.77,12.69-18.77,12.69,0,0,37.89-25.15,232.68,94.84l-16.99,3.35c-.83,0-1.56.49-1.78,1.21-.22.73.11,1.51.82,1.91l17.16,6.05-9.58,19.33c-.47.63-.41,1.48.14,2.06.56.58,1.47.75,2.22.42l19.71-14.08,7.62,22.4c.12.79.83,1.39,1.68,1.46.03,0,.07,0,.1,0,.9.03,1.69-.54,1.86-1.35v-25.34l27.5,2.95c.83.04,1.57-.43,1.83-1.14.26-.71-.03-1.5-.71-1.93l-21.1-13.23,15-20.44c.37-.7.17-1.55-.49-2.05-.66-.5-1.61-.53-2.29-.06l-19.74,10.56-5.63-28.15c-.36-.74-1.24-1.15-2.1-.97-.86.17-1.46.88-1.43,1.68l-3.92,23.37Z"/>
      <path class="cls-3" d="M133.08,90.24l-8.75,17.49-8.99,126.91c-.25,2.75-3,5.5-6.25,6.5-20.23,5.5-61.21,10.74-82.19,9.99-18.24-.75-26.73-8.24-25.23-26.73L11.16,88.99c0-3,1.75-4.75,4.75-4.75h115.42c3,0,3.75,3.25,1.75,6ZM87.11,115.22h-41.47l-7,99.18c0,2.5,1.75,4,4,4,8.99.25,27.73-1.25,37.48-3.5l6.99-99.68ZM214.78,149.7c4,0,5.25,3,3.75,6.25l-11.24,20.24c-1.5,3.25-4,4.25-6.99,4.25h-20.99l-7,98.93c-.25,2.75-2,4.25-5,4.25h-27.48c-3,0-4.5-1.5-4.25-4.25l14.49-205.11c.25-3,2-4.5,4.75-4.5h27.73c2.75,0,4.5,1.5,4.25,4.5l-5.25,75.45h33.23Z"/>
      <path class="cls-3" d="M444.65,262.93c2.75,1.25,4,3,2.25,6.25l-11.99,21.98c-1.5,2.25-3.5,3.5-5.75,2.25l-76.2-32.98c-22.48,19.49-56.21,29.73-88.69,31.48-3.74.5-5-.75-4.74-4.25l1.75-23.49c0-2.25,1.5-4,4.5-4.25,43.97-3.75,69.95-20.99,72.45-50.72.25-2.75,2-4,4.25-4h33.73c2.25,0,4,2,3.75,5.25-1,9.49-3.5,17.99-7.5,25.73l72.2,26.73Z"/>
      <g class="cls-5">
        <path class="cls-2" d="M296.18,121.71C127.5,14.09,76.22,24.5,72.38,26.17c-3.63,1.58-18.77,12.69-18.77,12.69,0,0,37.89-25.15,232.68,94.84l-16.99,3.35c-.83,0-1.56.49-1.78,1.21-.22.73.11,1.51.82,1.91l17.16,6.05-9.58,19.33c-.47.63-.41,1.48.14,2.06.56.58,1.47.75,2.22.42l19.71-14.08,7.62,22.4c.12.79.83,1.39,1.68,1.46.03,0,.07,0,.1,0,.9.03,1.69-.54,1.86-1.35v-25.34l27.5,2.95c.83.04,1.57-.43,1.83-1.14.26-.71-.03-1.5-.71-1.93l-21.1-13.23,15-20.44c.37-.7.17-1.55-.49-2.05-.66-.5-1.61-.53-2.29-.06l-19.74,10.56-5.63-28.15c-.36-.74-1.24-1.15-2.1-.97-.86.17-1.46.88-1.43,1.68l-3.92,23.37Z"/>
      </g>
    </g>
  </g>
</svg>