<svg width="278" height="273" viewBox="0 0 278 273" fill="none" xmlns="http://www.w3.org/2000/svg">
<rect width="85.1946" height="115.263" rx="10.0229" transform="matrix(-0.987123 -0.159965 -0.159965 0.987123 277.699 159.219)" fill="url(#paint0_linear_121_5)"/>
<rect x="0.511255" y="100.054" width="107.008" height="112.528" rx="6.9528" transform="rotate(-17.6241 0.511255 100.054)" fill="url(#paint1_linear_121_5)" stroke="#D6E2FF" stroke-width="0.814207"/>
<path d="M19.1935 80.1214C19.2645 79.9844 19.4325 79.931 19.5695 80.002L24.1191 82.3602C24.1924 82.3982 24.2788 82.402 24.355 82.3703L29.0848 80.3964C29.2272 80.337 29.3909 80.4043 29.4502 80.5467L31.4195 85.278C31.4512 85.3543 31.5153 85.4131 31.5942 85.4377L36.4854 86.965C36.6327 87.011 36.7147 87.1684 36.6685 87.3157L35.1357 92.2056C35.111 92.2843 35.1225 92.37 35.1669 92.4395L37.9324 96.7549C38.0154 96.8848 37.9769 97.0576 37.847 97.1407L33.5301 99.9015C33.4605 99.946 33.4134 100.019 33.4028 100.101L32.7478 105.183C32.728 105.336 32.5882 105.445 32.4352 105.425L27.3532 104.765C27.2712 104.754 27.1887 104.78 27.1279 104.836L23.3587 108.308C23.2452 108.413 23.0684 108.405 22.964 108.291L19.495 104.519C19.4391 104.458 19.3593 104.426 19.2769 104.43L14.1572 104.667C14.0033 104.673 13.8729 104.554 13.8657 104.4L13.6337 99.2802C13.6298 99.1979 13.5898 99.1212 13.5242 99.0711L9.45035 95.9624C9.32764 95.8687 9.30377 95.6929 9.39753 95.5703L12.5106 91.5002C12.5608 91.4346 12.5792 91.3496 12.5611 91.269L11.4388 86.2686C11.405 86.1181 11.4998 85.9686 11.6504 85.935L16.6513 84.8176C16.732 84.7996 16.801 84.7464 16.839 84.673L19.1935 80.1214ZM20.7584 84.3828C15.5305 86.0438 12.6388 91.6286 14.2993 96.8565C15.9602 102.085 21.5448 104.976 26.773 103.316C32.0013 101.655 34.893 96.0702 33.2321 90.8419C31.5709 85.6141 25.9864 82.722 20.7584 84.3828ZM21.1663 85.6734C25.6855 84.2377 30.5129 86.7377 31.9488 91.2568C33.3845 95.7761 30.8848 100.604 26.3655 102.039C21.8461 103.475 17.0186 100.975 15.5829 96.4559C14.1476 91.9367 16.6472 87.1091 21.1663 85.6734Z" fill="#6BAEFF"/>
<path d="M22.4639 97.58L22.1913 96.7219L23.7588 93.7672C23.9066 93.4782 24.026 93.2253 24.1169 93.0084C24.2078 92.7915 24.2641 92.5915 24.2858 92.4084C24.3075 92.2253 24.2896 92.043 24.2319 91.8616C24.1662 91.6545 24.0629 91.4923 23.9222 91.3748C23.7808 91.2553 23.6151 91.181 23.425 91.1521C23.2349 91.1232 23.0352 91.142 22.826 91.2085C22.6105 91.2769 22.4358 91.3818 22.3021 91.523C22.1677 91.662 22.0814 91.8269 22.0433 92.0176C22.0073 92.2076 22.0249 92.4146 22.0961 92.6388L20.9659 92.9978C20.8337 92.5816 20.8137 92.1896 20.9061 91.8219C20.9984 91.4542 21.1843 91.1332 21.4637 90.8588C21.7452 90.5837 22.1026 90.3773 22.5359 90.2397C22.9756 90.1 23.388 90.0594 23.7732 90.118C24.1584 90.1766 24.4882 90.3197 24.7626 90.5474C25.0392 90.7744 25.2358 91.0715 25.3524 91.4386C25.4304 91.6841 25.46 91.9402 25.4414 92.207C25.4227 92.4737 25.3407 92.7888 25.1953 93.1522C25.0521 93.5149 24.8332 93.9687 24.5386 94.5134L23.7736 96.0219L23.7878 96.0667L26.6437 95.1594L26.959 96.1519L22.4639 97.58Z" fill="white"/>
<rect x="34.8628" y="207.819" width="107.008" height="40.4012" rx="6.9528" transform="rotate(-17.6241 34.8628 207.819)" fill="url(#paint2_linear_121_5)" stroke="#D6E2FF" stroke-width="0.814207"/>
<path d="M134.743 202.728C134.768 202.665 134.845 202.64 134.902 202.678L136.239 203.548C136.278 203.573 136.328 203.571 136.364 203.542L137.617 202.553C137.67 202.511 137.749 202.529 137.78 202.589L138.502 204.011C138.523 204.053 138.568 204.076 138.614 204.069L140.192 203.838C140.259 203.828 140.319 203.883 140.316 203.951L140.23 205.544C140.227 205.59 140.255 205.633 140.298 205.65L141.781 206.24C141.844 206.265 141.868 206.342 141.831 206.399L140.961 207.736C140.936 207.774 140.937 207.825 140.966 207.861L141.956 209.112C141.998 209.166 141.98 209.245 141.919 209.276L140.497 209.999C140.456 210.02 140.433 210.065 140.44 210.111L140.671 211.689C140.68 211.756 140.626 211.815 140.558 211.812L138.964 211.727C138.918 211.724 138.876 211.752 138.859 211.795L138.269 213.278C138.244 213.341 138.167 213.365 138.11 213.328L136.773 212.458C136.734 212.433 136.684 212.434 136.648 212.463L135.395 213.452C135.342 213.494 135.263 213.477 135.232 213.417L134.51 211.994C134.489 211.953 134.444 211.93 134.398 211.936L132.82 212.166C132.752 212.176 132.692 212.122 132.696 212.054L132.781 210.461C132.784 210.415 132.757 210.373 132.714 210.356L131.231 209.766C131.168 209.741 131.144 209.664 131.181 209.607L132.051 208.27C132.076 208.231 132.074 208.18 132.045 208.144L131.056 206.892C131.014 206.839 131.032 206.76 131.092 206.729L132.515 206.007C132.556 205.986 132.579 205.941 132.572 205.895L132.341 204.317C132.332 204.25 132.386 204.19 132.454 204.193L134.047 204.278C134.094 204.28 134.136 204.254 134.153 204.211L134.743 202.728ZM135.343 204.346C133.324 204.988 132.207 207.144 132.848 209.163C133.49 211.182 135.647 212.299 137.666 211.658C139.685 211.016 140.801 208.86 140.16 206.84C139.518 204.822 137.362 203.705 135.343 204.346ZM135.499 204.839C137.245 204.285 139.11 205.251 139.664 206.996C140.219 208.741 139.253 210.605 137.507 211.16C135.762 211.714 133.897 210.749 133.343 209.004C132.789 207.259 133.754 205.394 135.499 204.839Z" fill="white" fill-opacity="0.5"/>
<rect x="126.105" y="187.664" width="6.99191" height="13.9838" rx="1.47198" transform="rotate(-17.6241 126.105 187.664)" fill="white" fill-opacity="0.5"/>
<rect x="46.7109" y="222.164" width="12.5118" height="68.8151" rx="1.47198" transform="rotate(-107.624 46.7109 222.164)" fill="url(#paint3_linear_121_5)" fill-opacity="0.5"/>
<rect x="49.7227" y="231.633" width="8.46388" height="58.8792" rx="1.47198" transform="rotate(-107.624 49.7227 231.633)" fill="white" fill-opacity="0.5"/>
<rect x="51.6133" y="237.594" width="4.78393" height="30.1756" rx="1.47198" transform="rotate(-107.624 51.6133 237.594)" fill="white" fill-opacity="0.5"/>
<rect x="124.992" y="184.164" width="6.99191" height="2.20797" rx="1.10399" transform="rotate(-17.6241 124.992 184.164)" fill="white" fill-opacity="0.5"/>
<rect x="89.1289" y="142.617" width="27.0133" height="13.5067" rx="6.75333" transform="rotate(-165.316 89.1289 142.617)" fill="url(#paint4_linear_121_5)"/>
<path d="M58.8031 157.311C54.5957 153.15 54.4517 146.4 58.4779 142.063L65.5921 134.4C67.8907 131.924 71.2026 130.647 74.5684 130.938L78.5722 131.285C79.5178 131.367 80.47 131.325 81.405 131.162L87.6918 130.062C90.8358 129.512 94.0513 130.519 96.3206 132.763C100.191 136.591 100.225 142.832 96.3975 146.702L80.21 163.069C75.954 167.373 69.0154 167.411 64.7122 163.155L58.8031 157.311Z" fill="#FFFFDC"/>
<rect x="53.3438" y="179.421" width="36.5293" height="18.2647" rx="9.13233" transform="rotate(-100.683 53.3438 179.421)" fill="url(#paint5_linear_121_5)"/>
<circle cx="91.0701" cy="129.649" r="5.81148" transform="rotate(-45.3164 91.0701 129.649)" fill="#313131"/>
<circle cx="75.8716" cy="141.471" r="1.66042" transform="rotate(-45.3164 75.8716 141.471)" fill="#313131"/>
<g filter="url(#filter0_d_121_5)">
<rect x="125.938" y="15" width="107.823" height="113.342" rx="7.3599" transform="rotate(8.64909 125.938 15)" fill="url(#paint6_linear_121_5)"/>
<rect x="126.279" y="15.4637" width="107.008" height="112.528" rx="6.9528" transform="rotate(8.64909 126.279 15.4637)" stroke="#D6E2FF" stroke-width="0.814207"/>
</g>
<rect x="145.344" y="74.875" width="25.9343" height="14.6428" rx="7.3214" transform="rotate(-43.7478 145.344 74.875)" fill="url(#paint7_linear_121_5)"/>
<path d="M166.547 62.9781C170.415 59.3923 176.612 60.3351 179.238 64.9086L189.777 83.2639C193.197 89.2201 188.22 96.4905 181.43 95.4577L155.37 91.4936C148.58 90.4607 145.99 82.0392 151.027 77.3694L166.547 62.9781Z" fill="#FFFFDE"/>
<path d="M161.43 81.6528C166.656 76.8072 175.03 78.0812 178.579 84.2616L192.821 109.066C197.443 117.115 190.717 126.94 181.542 125.544L146.325 120.187C137.15 118.792 133.65 107.411 140.456 101.1L161.43 81.6528Z" fill="#FFFFDE"/>
<path d="M168.592 80.6252C168.177 83.3506 165.632 85.2239 162.906 84.8093C160.181 84.3947 158.307 81.8493 158.722 79.1239C159.137 76.3985 161.33 76.8361 164.056 77.2506C166.781 77.6652 169.006 77.8997 168.592 80.6252Z" fill="#313131"/>
<circle cx="167.739" cy="73.5312" r="1.42616" transform="rotate(-19.0432 167.739 73.5312)" fill="#313131"/>
<circle cx="163.692" cy="72.9218" r="1.42616" transform="rotate(-19.0432 163.692 72.9218)" fill="#313131"/>
<rect x="181.59" y="89.3906" width="27.7851" height="15.6877" rx="7.84387" transform="rotate(-111.351 181.59 89.3906)" fill="url(#paint8_linear_121_5)"/>
<path d="M134.517 2.97448C134.684 2.85119 134.92 2.88704 135.043 3.05452L139.131 8.61424C139.196 8.7038 139.299 8.7592 139.41 8.76635L146.297 9.20261C146.505 9.21573 146.662 9.39447 146.649 9.60176L146.206 16.4886C146.199 16.5997 146.242 16.709 146.322 16.7858L151.318 21.5463C151.469 21.6897 151.474 21.9283 151.33 22.0786L146.565 27.069C146.488 27.1494 146.45 27.2601 146.463 27.3706L147.23 34.229C147.253 34.4356 147.104 34.6217 146.897 34.6446L140.038 35.405C139.927 35.4173 139.828 35.4778 139.767 35.5702L135.946 41.3168C135.831 41.4899 135.596 41.5373 135.423 41.422L129.68 37.595C129.588 37.5334 129.472 37.5157 129.366 37.5471L122.745 39.4935C122.545 39.5519 122.336 39.4371 122.278 39.2377L120.339 32.6149C120.307 32.5082 120.23 32.421 120.128 32.3765L113.805 29.6109C113.615 29.5275 113.528 29.3055 113.612 29.1153L116.383 22.7951C116.427 22.6932 116.425 22.5766 116.376 22.477L113.31 16.2952C113.217 16.109 113.293 15.8827 113.479 15.7905L119.665 12.7309C119.765 12.6815 119.838 12.5898 119.864 12.4816L121.489 5.77464C121.538 5.57279 121.742 5.44899 121.944 5.49812L128.649 7.12947C128.757 7.15576 128.871 7.13311 128.96 7.06724L134.517 2.97448ZM133.863 9.03487C126.56 7.92408 119.738 12.9441 118.627 20.2472C117.517 27.5504 122.537 34.3716 129.84 35.4826C137.143 36.5934 143.964 31.5734 145.075 24.2702C146.186 16.9671 141.166 10.1458 133.863 9.03487ZM133.589 10.8325C139.902 11.7929 144.241 17.6893 143.281 24.0022C142.32 30.3149 136.425 34.6538 130.112 33.6936C123.799 32.7332 119.46 26.8376 120.42 20.5248C121.38 14.2119 127.277 9.87239 133.589 10.8325Z" fill="#3E93FA"/>
<path d="M134.015 17.4103L132.622 26.5697L130.962 26.3173L132.11 18.7725L132.056 18.7643L129.706 19.807L129.937 18.2864L132.436 17.1702L134.015 17.4103Z" fill="white"/>
<g filter="url(#filter1_d_121_5)">
<rect x="109.035" y="126.844" width="107.823" height="41.2155" rx="7.3599" transform="rotate(8.64909 109.035 126.844)" fill="url(#paint9_linear_121_5)" shape-rendering="crispEdges"/>
<rect x="109.376" y="127.307" width="107.008" height="40.4012" rx="6.9528" transform="rotate(8.64909 109.376 127.307)" stroke="#D6E2FF" stroke-width="0.814207" shape-rendering="crispEdges"/>
</g>
<path d="M201.194 166.956C201.245 166.91 201.325 166.922 201.359 166.981L202.173 168.353C202.197 168.393 202.243 168.413 202.288 168.403L203.849 168.071C203.915 168.057 203.978 168.107 203.979 168.174L203.997 169.77C203.998 169.816 204.028 169.857 204.072 169.872L205.589 170.363C205.654 170.384 205.684 170.459 205.65 170.519L204.868 171.909C204.845 171.95 204.852 172 204.883 172.035L205.951 173.22C205.996 173.27 205.984 173.349 205.926 173.384L204.554 174.197C204.514 174.221 204.493 174.268 204.502 174.313L204.836 175.873C204.85 175.94 204.799 176.003 204.731 176.004L203.136 176.022C203.09 176.022 203.049 176.053 203.035 176.097L202.543 177.615C202.522 177.679 202.447 177.708 202.388 177.675L200.996 176.893C200.956 176.871 200.906 176.876 200.872 176.907L199.687 177.975C199.636 178.021 199.557 178.009 199.522 177.95L198.708 176.578C198.685 176.538 198.638 176.518 198.592 176.528L197.032 176.86C196.966 176.874 196.903 176.825 196.902 176.757L196.884 175.161C196.883 175.115 196.854 175.074 196.81 175.059L195.292 174.568C195.227 174.547 195.197 174.472 195.231 174.412L196.012 173.022C196.035 172.981 196.03 172.931 195.999 172.896L194.93 171.711C194.885 171.661 194.897 171.582 194.955 171.547L196.328 170.734C196.367 170.71 196.387 170.663 196.378 170.618L196.045 169.058C196.031 168.991 196.082 168.928 196.15 168.927L197.745 168.909C197.791 168.909 197.832 168.878 197.846 168.834L198.338 167.316C198.359 167.252 198.434 167.223 198.493 167.256L199.884 168.037C199.924 168.06 199.975 168.055 200.009 168.024L201.194 166.956ZM201.01 168.663C198.915 168.345 196.959 169.784 196.64 171.879C196.322 173.973 197.762 175.929 199.856 176.248C201.95 176.566 203.906 175.126 204.225 173.032C204.544 170.938 203.104 168.982 201.01 168.663ZM200.929 169.17C202.74 169.446 203.984 171.137 203.708 172.948C203.433 174.758 201.742 176.002 199.932 175.727C198.122 175.452 196.877 173.761 197.152 171.95C197.427 170.14 199.119 168.895 200.929 169.17Z" fill="white" fill-opacity="0.5"/>
<rect x="200.117" y="149.625" width="6.99191" height="13.9838" rx="1.47198" transform="rotate(8.64909 200.117 149.625)" fill="white" fill-opacity="0.5"/>
<rect x="113.656" y="145.406" width="12.5118" height="68.8151" rx="1.47198" transform="rotate(-81.3509 113.656 145.406)" fill="url(#paint10_linear_121_5)" fill-opacity="0.5"/>
<rect x="112.16" y="155.227" width="8.46388" height="58.8792" rx="1.47198" transform="rotate(-81.3509 112.16 155.227)" fill="white" fill-opacity="0.5"/>
<rect x="111.219" y="161.414" width="4.78393" height="30.1756" rx="1.47198" transform="rotate(-81.3509 111.219 161.414)" fill="white" fill-opacity="0.5"/>
<rect x="200.668" y="145.984" width="6.99191" height="2.20797" rx="1.10399" transform="rotate(8.64909 200.668 145.984)" fill="white" fill-opacity="0.5"/>
<rect x="215.457" y="200.079" width="20.3897" height="11.5122" rx="5.75612" transform="rotate(-67.3599 215.457 200.079)" fill="#A79F9F"/>
<path d="M241.271 200.68C239.991 195.889 235.137 192.979 230.308 194.108L221.774 196.102C219.016 196.746 216.71 198.626 215.524 201.197L214.112 204.256C213.779 204.978 213.353 205.654 212.846 206.267L209.433 210.386C207.726 212.446 207.123 215.205 207.814 217.789C208.992 222.197 213.52 224.815 217.928 223.637L236.568 218.655C241.469 217.346 244.38 212.311 243.07 207.41L241.271 200.68Z" fill="#CAC1C1"/>
<rect width="28.48" height="15.3087" rx="7.65433" transform="matrix(-0.971859 -0.235562 -0.235562 0.971859 257.613 197.461)" fill="#A79F9F"/>
<circle cx="4.87094" cy="4.87094" r="4.87094" transform="matrix(-0.966093 0.258196 0.258196 0.966093 211.176 206.711)" fill="#A79F9F"/>
<circle cx="1.3917" cy="1.3917" r="1.3917" transform="matrix(-0.966093 0.258196 0.258196 0.966093 223.641 204.821)" fill="#A79F9F"/>
<path d="M183.025 212.581C183.175 212.468 183.389 212.499 183.502 212.65L187.245 217.669C187.305 217.75 187.398 217.8 187.499 217.806L193.75 218.158C193.938 218.169 194.082 218.331 194.071 218.519L193.712 224.768C193.706 224.869 193.746 224.967 193.819 225.037L198.381 229.325C198.518 229.454 198.525 229.67 198.395 229.808L194.103 234.364C194.034 234.438 194.001 234.538 194.013 234.639L194.751 240.856C194.773 241.043 194.639 241.213 194.452 241.235L188.234 241.967C188.134 241.978 188.045 242.034 187.989 242.119L184.558 247.356C184.455 247.513 184.243 247.557 184.086 247.454L178.852 244.018C178.768 243.962 178.663 243.947 178.566 243.976L172.573 245.783C172.392 245.838 172.201 245.735 172.147 245.555L170.347 239.558C170.318 239.462 170.247 239.383 170.154 239.343L164.401 236.874C164.228 236.8 164.148 236.599 164.223 236.426L166.697 230.675C166.737 230.582 166.734 230.476 166.689 230.386L163.868 224.797C163.783 224.629 163.851 224.424 164.02 224.339L169.612 221.524C169.702 221.478 169.768 221.395 169.791 221.297L171.224 215.203C171.267 215.02 171.45 214.906 171.634 214.949L177.727 216.388C177.825 216.411 177.929 216.39 178.009 216.329L183.025 212.581ZM182.47 218.101C175.838 217.139 169.682 221.735 168.72 228.367C167.757 234.999 172.353 241.156 178.985 242.118C185.617 243.081 191.774 238.484 192.737 231.852C193.699 225.22 189.102 219.064 182.47 218.101ZM182.236 219.732C187.969 220.564 191.942 225.887 191.111 231.619C190.279 237.352 184.956 241.324 179.224 240.492C173.491 239.66 169.519 234.339 170.35 228.607C171.182 222.874 176.504 218.901 182.236 219.732Z" fill="#80B9FF"/>
<path d="M179.894 234.009C179.309 233.924 178.803 233.748 178.378 233.482C177.955 233.216 177.638 232.885 177.427 232.49C177.216 232.094 177.137 231.661 177.188 231.19L178.715 231.412C178.696 231.639 178.742 231.846 178.853 232.033C178.965 232.218 179.126 232.373 179.337 232.498C179.549 232.622 179.794 232.705 180.073 232.745C180.371 232.788 180.642 232.775 180.887 232.706C181.133 232.634 181.334 232.514 181.491 232.346C181.648 232.178 181.743 231.972 181.776 231.728C181.815 231.476 181.782 231.245 181.677 231.033C181.573 230.822 181.402 230.644 181.166 230.499C180.933 230.354 180.64 230.256 180.288 230.205L179.553 230.099L179.721 228.937L180.457 229.044C180.746 229.086 181.007 229.073 181.238 229.004C181.472 228.935 181.664 228.82 181.815 228.656C181.966 228.49 182.058 228.287 182.09 228.045C182.127 227.81 182.104 227.598 182.021 227.409C181.941 227.218 181.81 227.059 181.63 226.933C181.451 226.808 181.232 226.726 180.972 226.689C180.718 226.652 180.476 226.664 180.246 226.724C180.016 226.785 179.822 226.891 179.665 227.042C179.508 227.191 179.408 227.381 179.366 227.613L177.916 227.402C177.995 226.938 178.188 226.549 178.496 226.234C178.808 225.917 179.194 225.691 179.656 225.556C180.119 225.419 180.619 225.389 181.158 225.467C181.713 225.548 182.18 225.722 182.558 225.99C182.94 226.255 183.218 226.579 183.392 226.961C183.566 227.343 183.622 227.745 183.561 228.167C183.496 228.636 183.301 229.009 182.976 229.285C182.654 229.562 182.261 229.716 181.797 229.749L181.788 229.813C182.361 229.98 182.778 230.261 183.038 230.658C183.301 231.053 183.394 231.51 183.316 232.03C183.248 232.496 183.055 232.893 182.736 233.223C182.421 233.55 182.016 233.785 181.523 233.926C181.032 234.068 180.489 234.095 179.894 234.009Z" fill="white"/>
<defs>
<filter id="filter0_d_121_5" x="87.2961" y="6.07165" width="154.166" height="158.792" filterUnits="userSpaceOnUse" color-interpolation-filters="sRGB">
<feFlood flood-opacity="0" result="BackgroundImageFix"/>
<feColorMatrix in="SourceAlpha" type="matrix" values="0 0 0 0 0 0 0 0 0 0 0 0 0 0 0 0 0 0 127 0" result="hardAlpha"/>
<feOffset dx="-6.33382" dy="6.33382"/>
<feGaussianBlur stdDeviation="8.14207"/>
<feComposite in2="hardAlpha" operator="out"/>
<feColorMatrix type="matrix" values="0 0 0 0 0 0 0 0 0 0 0 0 0 0 0 0 0 0 0.05 0"/>
<feBlend mode="normal" in2="BackgroundImageFix" result="effect1_dropShadow_121_5"/>
<feBlend mode="normal" in="SourceGraphic" in2="effect1_dropShadow_121_5" result="shape"/>
</filter>
<filter id="filter1_d_121_5" x="81.2414" y="117.915" width="143.318" height="87.4858" filterUnits="userSpaceOnUse" color-interpolation-filters="sRGB">
<feFlood flood-opacity="0" result="BackgroundImageFix"/>
<feColorMatrix in="SourceAlpha" type="matrix" values="0 0 0 0 0 0 0 0 0 0 0 0 0 0 0 0 0 0 127 0" result="hardAlpha"/>
<feOffset dx="-6.33382" dy="6.33382"/>
<feGaussianBlur stdDeviation="8.14207"/>
<feComposite in2="hardAlpha" operator="out"/>
<feColorMatrix type="matrix" values="0 0 0 0 0 0 0 0 0 0 0 0 0 0 0 0 0 0 0.05 0"/>
<feBlend mode="normal" in2="BackgroundImageFix" result="effect1_dropShadow_121_5"/>
<feBlend mode="normal" in="SourceGraphic" in2="effect1_dropShadow_121_5" result="shape"/>
</filter>
<linearGradient id="paint0_linear_121_5" x1="42.5973" y1="0" x2="42.5973" y2="115.263" gradientUnits="userSpaceOnUse">
<stop stop-color="#E7E0E0"/>
<stop offset="1" stop-color="#D4E1FF"/>
</linearGradient>
<linearGradient id="paint1_linear_121_5" x1="53.9113" y1="99.7891" x2="53.9113" y2="213.132" gradientUnits="userSpaceOnUse">
<stop stop-color="#F4F7FF"/>
<stop offset="1" stop-color="#C2D4FF"/>
</linearGradient>
<linearGradient id="paint2_linear_121_5" x1="34.3516" y1="228.162" x2="142.174" y2="228.162" gradientUnits="userSpaceOnUse">
<stop stop-color="white" stop-opacity="0.9"/>
<stop offset="1" stop-color="#C2D4FF"/>
</linearGradient>
<linearGradient id="paint3_linear_121_5" x1="52.9669" y1="222.164" x2="52.9668" y2="290.979" gradientUnits="userSpaceOnUse">
<stop stop-color="white"/>
<stop offset="1" stop-color="white" stop-opacity="0.5"/>
</linearGradient>
<linearGradient id="paint4_linear_121_5" x1="102.636" y1="156.123" x2="102.636" y2="142.617" gradientUnits="userSpaceOnUse">
<stop stop-color="#313131"/>
<stop offset="1" stop-color="#979797"/>
</linearGradient>
<linearGradient id="paint5_linear_121_5" x1="89.8731" y1="188.554" x2="53.3438" y2="188.554" gradientUnits="userSpaceOnUse">
<stop stop-color="#313131"/>
<stop offset="1" stop-color="#5F5353"/>
</linearGradient>
<linearGradient id="paint6_linear_121_5" x1="179.849" y1="15" x2="179.849" y2="128.342" gradientUnits="userSpaceOnUse">
<stop stop-color="#F4F7FF"/>
<stop offset="1" stop-color="#D2E0FF"/>
</linearGradient>
<linearGradient id="paint7_linear_121_5" x1="158.311" y1="74.875" x2="158.311" y2="89.5178" gradientUnits="userSpaceOnUse">
<stop stop-color="#313131"/>
<stop offset="1" stop-color="#979797"/>
</linearGradient>
<linearGradient id="paint8_linear_121_5" x1="209.375" y1="97.2345" x2="181.59" y2="97.2345" gradientUnits="userSpaceOnUse">
<stop stop-color="#313131"/>
<stop offset="1" stop-color="#5F5353"/>
</linearGradient>
<linearGradient id="paint9_linear_121_5" x1="109.035" y1="147.451" x2="216.858" y2="147.451" gradientUnits="userSpaceOnUse">
<stop stop-color="white" stop-opacity="0.9"/>
<stop offset="1" stop-color="#C2D4FF"/>
</linearGradient>
<linearGradient id="paint10_linear_121_5" x1="119.912" y1="145.406" x2="119.912" y2="214.221" gradientUnits="userSpaceOnUse">
<stop stop-color="white"/>
<stop offset="1" stop-color="white" stop-opacity="0.5"/>
</linearGradient>
</defs>
</svg>
