<svg width="278" height="273" viewBox="0 0 278 273" fill="none" xmlns="http://www.w3.org/2000/svg">
<rect width="85.1946" height="115.263" rx="10.0229" transform="matrix(-0.987123 -0.159965 -0.159965 0.987123 277.699 159.219)" fill="url(#paint0_linear_328_2408)"/>
<rect x="0.511255" y="100.054" width="107.008" height="112.528" rx="6.9528" transform="rotate(-17.6241 0.511255 100.054)" fill="url(#paint1_linear_328_2408)" stroke="#D6E2FF" stroke-width="0.814207"/>
<path d="M19.1933 80.1193C19.2642 79.9823 19.4324 79.9289 19.5693 79.9998L24.1189 82.358C24.1923 82.3961 24.2794 82.3997 24.3557 82.3679L29.0846 80.3942C29.2269 80.3348 29.3906 80.4023 29.45 80.5446L31.4192 85.2759C31.451 85.3522 31.5151 85.4109 31.594 85.4356L36.4855 86.9638C36.6327 87.0099 36.7144 87.1663 36.6683 87.3135L35.1355 92.2034C35.1107 92.2823 35.1224 92.3687 35.167 92.4383L37.9322 96.7528C38.0153 96.8826 37.9774 97.055 37.8477 97.1383L33.5299 99.8994C33.4602 99.9439 33.4144 100.017 33.4038 100.099L32.7478 105.182C32.728 105.335 32.5879 105.443 32.435 105.423L27.353 104.762C27.271 104.752 27.1885 104.778 27.1277 104.834L23.3585 108.306C23.2451 108.411 23.0686 108.403 22.9641 108.29L19.495 104.518C19.4391 104.457 19.3593 104.424 19.2767 104.427L14.157 104.664C14.0031 104.671 13.8726 104.552 13.8655 104.398L13.6338 99.279C13.63 99.1964 13.5897 99.1191 13.524 99.069L9.45015 95.9602C9.3275 95.8666 9.30399 95.6917 9.39762 95.5691L12.5103 91.4981C12.5606 91.4324 12.579 91.3475 12.5609 91.2668L11.4386 86.2665C11.405 86.116 11.4997 85.9665 11.6502 85.9328L16.6511 84.8155C16.7318 84.7974 16.8008 84.7442 16.8388 84.6708L19.1933 80.1193ZM20.7585 84.3816C15.5305 86.0427 12.6386 91.6273 14.2993 96.8553C15.9603 102.083 21.545 104.975 26.7731 103.314C32.0013 101.654 34.8929 96.0689 33.2322 90.8407C31.5712 85.6126 25.9867 82.7207 20.7585 84.3816ZM21.1664 85.6722C25.6857 84.2365 30.5132 86.7362 31.9489 91.2556C33.3844 95.7748 30.8848 100.602 26.3655 102.038C21.8464 103.474 17.0188 100.974 15.583 96.4547C14.1474 91.9355 16.6472 87.108 21.1664 85.6722Z" fill="#6392FF"/>
<path d="M22.4639 97.58L22.1913 96.7219L23.7588 93.7672C23.9066 93.4782 24.026 93.2253 24.1169 93.0084C24.2078 92.7915 24.2641 92.5915 24.2858 92.4084C24.3075 92.2253 24.2896 92.043 24.2319 91.8616C24.1662 91.6545 24.0629 91.4923 23.9222 91.3748C23.7808 91.2553 23.6151 91.181 23.425 91.1521C23.2349 91.1232 23.0352 91.142 22.826 91.2085C22.6105 91.2769 22.4358 91.3818 22.3021 91.523C22.1677 91.662 22.0814 91.8269 22.0433 92.0176C22.0073 92.2076 22.0249 92.4146 22.0961 92.6388L20.9659 92.9978C20.8337 92.5816 20.8137 92.1896 20.9061 91.8219C20.9984 91.4542 21.1843 91.1332 21.4637 90.8588C21.7452 90.5837 22.1026 90.3773 22.5359 90.2397C22.9756 90.1 23.388 90.0594 23.7732 90.118C24.1584 90.1766 24.4882 90.3197 24.7626 90.5474C25.0392 90.7744 25.2358 91.0715 25.3524 91.4386C25.4304 91.6841 25.46 91.9402 25.4414 92.207C25.4227 92.4737 25.3407 92.7888 25.1953 93.1522C25.0521 93.5149 24.8332 93.9687 24.5386 94.5134L23.7736 96.0219L23.7878 96.0667L26.6437 95.1594L26.959 96.1519L22.4639 97.58Z" fill="white"/>
<rect x="34.8628" y="207.819" width="107.008" height="40.4012" rx="6.9528" transform="rotate(-17.6241 34.8628 207.819)" fill="url(#paint2_linear_328_2408)" stroke="#D6E2FF" stroke-width="0.814207"/>
<path d="M134.743 202.727C134.768 202.663 134.845 202.639 134.902 202.676L136.239 203.547C136.278 203.572 136.328 203.569 136.364 203.541L137.616 202.551C137.67 202.509 137.749 202.527 137.78 202.588L138.502 204.01C138.523 204.051 138.568 204.074 138.614 204.068L140.192 203.837C140.259 203.827 140.319 203.881 140.316 203.949L140.23 205.542C140.227 205.588 140.255 205.631 140.298 205.649L141.781 206.238C141.844 206.263 141.868 206.34 141.831 206.397L140.961 207.734C140.936 207.773 140.937 207.823 140.966 207.86L141.956 209.112C141.998 209.165 141.98 209.244 141.92 209.275L140.497 209.997C140.456 210.018 140.433 210.063 140.44 210.109L140.67 211.687C140.68 211.755 140.626 211.815 140.558 211.811L138.964 211.725C138.918 211.723 138.876 211.751 138.859 211.794L138.269 213.276C138.244 213.339 138.167 213.364 138.11 213.327L136.773 212.456C136.734 212.431 136.684 212.433 136.648 212.461L135.395 213.451C135.342 213.493 135.263 213.476 135.232 213.415L134.51 211.993C134.489 211.952 134.444 211.928 134.398 211.935L132.82 212.166C132.753 212.176 132.693 212.121 132.696 212.054L132.782 210.46C132.784 210.414 132.757 210.371 132.714 210.354L131.231 209.765C131.168 209.74 131.144 209.663 131.181 209.606L132.051 208.269C132.076 208.23 132.074 208.178 132.046 208.142L131.056 206.891C131.014 206.837 131.032 206.758 131.092 206.728L132.515 206.005C132.556 205.984 132.579 205.939 132.572 205.894L132.341 204.315C132.332 204.248 132.386 204.188 132.454 204.192L134.047 204.277C134.094 204.279 134.136 204.252 134.153 204.209L134.743 202.727ZM135.343 204.345C133.324 204.986 132.207 207.143 132.848 209.162C133.49 211.181 135.646 212.297 137.665 211.656C139.685 211.015 140.801 208.858 140.16 206.839C139.518 204.82 137.362 203.703 135.343 204.345ZM135.499 204.838C137.245 204.283 139.11 205.249 139.664 206.994C140.218 208.74 139.253 210.604 137.507 211.158C135.762 211.713 133.897 210.748 133.343 209.003C132.789 207.258 133.754 205.392 135.499 204.838Z" fill="white" fill-opacity="0.5"/>
<rect x="126.105" y="187.664" width="6.99191" height="13.9838" rx="1.47198" transform="rotate(-17.6241 126.105 187.664)" fill="white" fill-opacity="0.5"/>
<rect x="46.7109" y="222.164" width="12.5118" height="68.8151" rx="1.47198" transform="rotate(-107.624 46.7109 222.164)" fill="url(#paint3_linear_328_2408)" fill-opacity="0.5"/>
<rect x="49.7227" y="231.633" width="8.46388" height="58.8792" rx="1.47198" transform="rotate(-107.624 49.7227 231.633)" fill="white" fill-opacity="0.5"/>
<rect x="51.6133" y="237.594" width="4.78393" height="30.1756" rx="1.47198" transform="rotate(-107.624 51.6133 237.594)" fill="white" fill-opacity="0.5"/>
<rect x="124.992" y="184.164" width="6.99191" height="2.20797" rx="1.10399" transform="rotate(-17.6241 124.992 184.164)" fill="white" fill-opacity="0.5"/>
<rect x="89.1289" y="142.617" width="27.0133" height="13.5067" rx="6.75333" transform="rotate(-165.316 89.1289 142.617)" fill="url(#paint4_linear_328_2408)"/>
<path d="M58.8031 157.311C54.5957 153.15 54.4517 146.4 58.4779 142.063L65.5921 134.401C67.8907 131.925 71.2026 130.647 74.5684 130.939L78.5722 131.285C79.5178 131.367 80.47 131.326 81.405 131.162L87.6918 130.063C90.8358 129.513 94.0513 130.52 96.3206 132.764V132.764C100.191 136.592 100.225 142.832 96.3975 146.703L80.21 163.07C75.954 167.373 69.0154 167.411 64.7122 163.155L58.8031 157.311Z" fill="#FFFFDC"/>
<rect x="53.3438" y="179.422" width="36.5293" height="18.2647" rx="9.13233" transform="rotate(-100.683 53.3438 179.422)" fill="url(#paint5_linear_328_2408)"/>
<circle cx="91.0701" cy="129.65" r="5.81148" transform="rotate(-45.3164 91.0701 129.65)" fill="#313131"/>
<circle cx="75.8716" cy="141.471" r="1.66042" transform="rotate(-45.3164 75.8716 141.471)" fill="#313131"/>
<g filter="url(#filter0_d_328_2408)">
<rect x="125.938" y="15" width="107.823" height="113.342" rx="7.3599" transform="rotate(8.64909 125.938 15)" fill="url(#paint6_linear_328_2408)"/>
<rect x="126.279" y="15.4637" width="107.008" height="112.528" rx="6.9528" transform="rotate(8.64909 126.279 15.4637)" stroke="#D6E2FF" stroke-width="0.814207"/>
</g>
<rect x="145.344" y="74.875" width="25.9343" height="14.6428" rx="7.3214" transform="rotate(-43.7478 145.344 74.875)" fill="url(#paint7_linear_328_2408)"/>
<path d="M166.547 62.9781C170.415 59.3923 176.612 60.3351 179.238 64.9086L189.777 83.2639C193.197 89.2201 188.22 96.4905 181.43 95.4577L155.37 91.4936C148.58 90.4607 145.99 82.0392 151.027 77.3694L166.547 62.9781Z" fill="#FFFFDE"/>
<path d="M161.43 81.6528C166.656 76.8072 175.03 78.0812 178.579 84.2616L192.821 109.066C197.443 117.115 190.717 126.94 181.542 125.544L146.325 120.187C137.15 118.792 133.65 107.411 140.456 101.1L161.43 81.6528Z" fill="#FFFFDE"/>
<path d="M168.592 80.6252C168.177 83.3506 165.632 85.2239 162.906 84.8093C160.181 84.3947 158.307 81.8493 158.722 79.1239C159.137 76.3985 161.33 76.8361 164.056 77.2506C166.781 77.6652 169.006 77.8997 168.592 80.6252Z" fill="#313131"/>
<circle cx="167.739" cy="73.5312" r="1.42616" transform="rotate(-19.0432 167.739 73.5312)" fill="#313131"/>
<circle cx="163.692" cy="72.9218" r="1.42616" transform="rotate(-19.0432 163.692 72.9218)" fill="#313131"/>
<rect x="181.59" y="89.3906" width="27.7851" height="15.6877" rx="7.84387" transform="rotate(-111.351 181.59 89.3906)" fill="url(#paint8_linear_328_2408)"/>
<path d="M134.517 2.97099C134.684 2.84771 134.92 2.88356 135.043 3.05103L139.13 8.61076C139.196 8.70044 139.299 8.75598 139.411 8.76301L146.297 9.19912C146.505 9.21224 146.662 9.39101 146.649 9.59827L146.206 16.4851C146.199 16.5962 146.242 16.7055 146.322 16.7823L151.318 21.5428C151.469 21.6863 151.474 21.9248 151.33 22.0751L146.565 27.0656C146.488 27.1459 146.45 27.2567 146.463 27.3671L147.23 34.2255C147.253 34.4321 147.104 34.6183 146.897 34.6411L140.039 35.4016C139.928 35.4139 139.828 35.4742 139.767 35.5667L135.946 41.3143C135.831 41.4872 135.596 41.5337 135.423 41.4185L129.68 37.5915C129.588 37.5299 129.472 37.5123 129.366 37.5436L122.745 39.49C122.546 39.5484 122.336 39.4344 122.278 39.2352L120.339 32.6115C120.307 32.5048 120.23 32.4175 120.128 32.373L113.805 29.6074C113.615 29.524 113.528 29.302 113.612 29.1118L116.383 22.7916C116.427 22.6897 116.425 22.5731 116.376 22.4735L113.31 16.2917C113.217 16.1055 113.293 15.8792 113.479 15.787L119.665 12.7274C119.765 12.678 119.838 12.5863 119.864 12.4781L121.489 5.77116C121.538 5.56934 121.742 5.44551 121.944 5.49464L128.649 7.12599C128.757 7.15228 128.871 7.12963 128.96 7.06376L134.517 2.97099ZM133.863 9.03138C126.56 7.92062 119.738 12.9407 118.627 20.2437C117.517 27.5469 122.537 34.3681 129.84 35.4791C137.143 36.59 143.964 31.57 145.075 24.2668C146.186 16.9636 141.166 10.1423 133.863 9.03138ZM133.589 10.8291C139.902 11.7894 144.241 17.6859 143.281 23.9987C142.32 30.3115 136.425 34.6503 130.112 33.6901C123.799 32.7297 119.46 26.8341 120.42 20.5213C121.38 14.2085 127.277 9.86893 133.589 10.8291Z" fill="#004CFF"/>
<path d="M134.015 17.4103L132.622 26.5697L130.962 26.3173L132.11 18.7725L132.056 18.7643L129.706 19.807L129.937 18.2864L132.436 17.1702L134.015 17.4103Z" fill="white"/>
<g filter="url(#filter1_d_328_2408)">
<rect x="109.035" y="126.844" width="107.823" height="41.2155" rx="7.3599" transform="rotate(8.64909 109.035 126.844)" fill="url(#paint9_linear_328_2408)" shape-rendering="crispEdges"/>
<rect x="109.376" y="127.307" width="107.008" height="40.4012" rx="6.9528" transform="rotate(8.64909 109.376 127.307)" stroke="#D6E2FF" stroke-width="0.814207" shape-rendering="crispEdges"/>
</g>
<path d="M201.194 166.955C201.245 166.909 201.325 166.921 201.36 166.98L202.173 168.352C202.197 168.392 202.243 168.412 202.288 168.402L203.849 168.07C203.915 168.056 203.978 168.106 203.979 168.174L203.997 169.77C203.998 169.816 204.028 169.856 204.072 169.871L205.589 170.362C205.654 170.383 205.684 170.459 205.651 170.518L204.868 171.908C204.846 171.949 204.852 171.999 204.883 172.034L205.951 173.219C205.996 173.269 205.984 173.349 205.926 173.384L204.554 174.197C204.514 174.221 204.493 174.267 204.503 174.312L204.836 175.872C204.85 175.939 204.799 176.003 204.731 176.004L203.136 176.022C203.09 176.022 203.049 176.052 203.035 176.096L202.543 177.614C202.522 177.678 202.447 177.708 202.388 177.675L200.997 176.892C200.956 176.87 200.906 176.876 200.872 176.907L199.687 177.975C199.636 178.021 199.557 178.009 199.522 177.95L198.708 176.578C198.685 176.538 198.639 176.517 198.594 176.527L197.032 176.86C196.966 176.874 196.903 176.824 196.902 176.756L196.884 175.161C196.884 175.114 196.854 175.074 196.81 175.059L195.292 174.568C195.227 174.547 195.197 174.471 195.231 174.411L196.013 173.021C196.036 172.981 196.03 172.93 195.999 172.896L194.93 171.711C194.885 171.661 194.897 171.581 194.955 171.546L196.328 170.733C196.368 170.709 196.389 170.662 196.379 170.617L196.045 169.057C196.031 168.99 196.082 168.927 196.15 168.927L197.745 168.908C197.791 168.908 197.832 168.878 197.846 168.834L198.338 167.316C198.359 167.252 198.434 167.222 198.494 167.255L199.885 168.037C199.925 168.059 199.975 168.054 200.01 168.023L201.194 166.955ZM201.01 168.662C198.915 168.344 196.959 169.783 196.641 171.878C196.322 173.972 197.762 175.928 199.856 176.247C201.95 176.565 203.907 175.126 204.225 173.031C204.544 170.937 203.104 168.981 201.01 168.662ZM200.93 169.17C202.74 169.445 203.984 171.136 203.709 172.947C203.433 174.757 201.743 176.001 199.932 175.726C198.122 175.451 196.877 173.76 197.152 171.949C197.428 170.139 199.119 168.894 200.93 169.17Z" fill="white" fill-opacity="0.5"/>
<rect x="200.117" y="149.625" width="6.99191" height="13.9838" rx="1.47198" transform="rotate(8.64909 200.117 149.625)" fill="white" fill-opacity="0.5"/>
<rect x="113.656" y="145.406" width="12.5118" height="68.8151" rx="1.47198" transform="rotate(-81.3509 113.656 145.406)" fill="url(#paint10_linear_328_2408)" fill-opacity="0.5"/>
<rect x="112.16" y="155.227" width="8.46388" height="58.8792" rx="1.47198" transform="rotate(-81.3509 112.16 155.227)" fill="white" fill-opacity="0.5"/>
<rect x="111.219" y="161.414" width="4.78393" height="30.1756" rx="1.47198" transform="rotate(-81.3509 111.219 161.414)" fill="white" fill-opacity="0.5"/>
<rect x="200.668" y="145.984" width="6.99191" height="2.20797" rx="1.10399" transform="rotate(8.64909 200.668 145.984)" fill="white" fill-opacity="0.5"/>
<rect x="215.457" y="200.078" width="20.3897" height="11.5122" rx="5.75612" transform="rotate(-67.3599 215.457 200.078)" fill="#A79F9F"/>
<path d="M241.271 200.68C239.991 195.888 235.137 192.979 230.308 194.107L221.774 196.102C219.016 196.746 216.71 198.626 215.524 201.197L214.112 204.255C213.779 204.978 213.353 205.654 212.846 206.266L209.433 210.385C207.726 212.445 207.123 215.204 207.814 217.789V217.789C208.992 222.197 213.52 224.815 217.928 223.637L236.568 218.655C241.469 217.345 244.38 212.311 243.07 207.41L241.271 200.68Z" fill="#CAC1C1"/>
<rect width="28.48" height="15.3087" rx="7.65433" transform="matrix(-0.971859 -0.235562 -0.235562 0.971859 257.613 197.461)" fill="#A79F9F"/>
<circle cx="4.87094" cy="4.87094" r="4.87094" transform="matrix(-0.966093 0.258196 0.258196 0.966093 211.176 206.711)" fill="#A79F9F"/>
<circle cx="1.3917" cy="1.3917" r="1.3917" transform="matrix(-0.966093 0.258196 0.258196 0.966093 223.641 204.82)" fill="#A79F9F"/>
<path d="M183.025 212.578C183.176 212.466 183.389 212.497 183.502 212.648L187.245 217.666C187.305 217.747 187.399 217.797 187.5 217.802L193.75 218.155C193.938 218.166 194.082 218.327 194.071 218.515L193.712 224.766C193.707 224.867 193.746 224.965 193.82 225.034L198.381 229.321C198.518 229.451 198.525 229.667 198.396 229.804L194.103 234.362C194.034 234.435 194.001 234.536 194.013 234.636L194.751 240.852C194.773 241.039 194.639 241.209 194.452 241.231L188.235 241.963C188.135 241.975 188.044 242.031 187.989 242.115L184.558 247.352C184.455 247.51 184.243 247.554 184.085 247.451L178.853 244.015C178.768 243.96 178.663 243.944 178.567 243.974L172.572 245.78C172.392 245.834 172.202 245.732 172.147 245.551L170.346 239.555C170.317 239.458 170.247 239.379 170.155 239.34L164.402 236.871C164.228 236.796 164.147 236.595 164.222 236.422L166.697 230.672C166.737 230.579 166.733 230.474 166.688 230.384L163.869 224.794C163.784 224.625 163.852 224.42 164.02 224.335L169.612 221.521C169.702 221.476 169.768 221.393 169.791 221.295L171.223 215.2C171.266 215.016 171.451 214.902 171.634 214.946L177.727 216.384C177.825 216.408 177.929 216.386 178.01 216.326L183.025 212.578ZM182.469 218.099C175.838 217.137 169.681 221.733 168.719 228.364C167.757 234.996 172.353 241.153 178.984 242.116C185.616 243.078 191.773 238.481 192.736 231.849C193.698 225.218 189.101 219.061 182.469 218.099ZM182.236 219.73C187.968 220.562 191.942 225.884 191.11 231.616C190.278 237.349 184.956 241.322 179.223 240.49C173.491 239.657 169.518 234.336 170.35 228.604C171.182 222.871 176.503 218.898 182.236 219.73Z" fill="#A6C1FF"/>
<path d="M179.894 234.009C179.309 233.924 178.803 233.748 178.378 233.482C177.955 233.216 177.638 232.885 177.427 232.49C177.216 232.094 177.137 231.661 177.188 231.19L178.715 231.412C178.696 231.639 178.742 231.846 178.853 232.033C178.965 232.218 179.126 232.373 179.337 232.498C179.549 232.622 179.794 232.705 180.073 232.745C180.371 232.788 180.642 232.775 180.887 232.706C181.133 232.634 181.334 232.514 181.491 232.346C181.648 232.178 181.743 231.972 181.776 231.728C181.815 231.476 181.782 231.245 181.677 231.033C181.573 230.822 181.402 230.644 181.166 230.499C180.933 230.354 180.64 230.256 180.288 230.205L179.553 230.099L179.721 228.937L180.457 229.044C180.746 229.086 181.007 229.073 181.238 229.004C181.472 228.935 181.664 228.82 181.815 228.656C181.966 228.49 182.058 228.287 182.09 228.045C182.127 227.81 182.104 227.598 182.021 227.409C181.941 227.218 181.81 227.059 181.63 226.933C181.451 226.808 181.232 226.726 180.972 226.689C180.718 226.652 180.476 226.664 180.246 226.724C180.016 226.785 179.822 226.891 179.665 227.042C179.508 227.191 179.408 227.381 179.366 227.613L177.916 227.402C177.995 226.938 178.188 226.549 178.496 226.234C178.808 225.917 179.194 225.691 179.656 225.556C180.119 225.419 180.619 225.389 181.158 225.467C181.713 225.548 182.18 225.722 182.558 225.99C182.94 226.255 183.218 226.579 183.392 226.961C183.566 227.343 183.622 227.745 183.561 228.167C183.496 228.636 183.301 229.009 182.976 229.285C182.654 229.562 182.261 229.716 181.797 229.749L181.788 229.813C182.361 229.98 182.778 230.261 183.038 230.658C183.301 231.053 183.394 231.51 183.316 232.03C183.248 232.496 183.055 232.893 182.736 233.223C182.421 233.55 182.016 233.785 181.523 233.926C181.032 234.068 180.489 234.095 179.894 234.009Z" fill="white"/>
<defs>
<filter id="filter0_d_328_2408" x="87.2961" y="6.07311" width="154.166" height="158.787" filterUnits="userSpaceOnUse" color-interpolation-filters="sRGB">
<feFlood flood-opacity="0" result="BackgroundImageFix"/>
<feColorMatrix in="SourceAlpha" type="matrix" values="0 0 0 0 0 0 0 0 0 0 0 0 0 0 0 0 0 0 127 0" result="hardAlpha"/>
<feOffset dx="-6.33382" dy="6.33382"/>
<feGaussianBlur stdDeviation="8.14207"/>
<feComposite in2="hardAlpha" operator="out"/>
<feColorMatrix type="matrix" values="0 0 0 0 0 0 0 0 0 0 0 0 0 0 0 0 0 0 0.05 0"/>
<feBlend mode="normal" in2="BackgroundImageFix" result="effect1_dropShadow_328_2408"/>
<feBlend mode="normal" in="SourceGraphic" in2="effect1_dropShadow_328_2408" result="shape"/>
</filter>
<filter id="filter1_d_328_2408" x="81.2414" y="117.917" width="143.318" height="87.4823" filterUnits="userSpaceOnUse" color-interpolation-filters="sRGB">
<feFlood flood-opacity="0" result="BackgroundImageFix"/>
<feColorMatrix in="SourceAlpha" type="matrix" values="0 0 0 0 0 0 0 0 0 0 0 0 0 0 0 0 0 0 127 0" result="hardAlpha"/>
<feOffset dx="-6.33382" dy="6.33382"/>
<feGaussianBlur stdDeviation="8.14207"/>
<feComposite in2="hardAlpha" operator="out"/>
<feColorMatrix type="matrix" values="0 0 0 0 0 0 0 0 0 0 0 0 0 0 0 0 0 0 0.05 0"/>
<feBlend mode="normal" in2="BackgroundImageFix" result="effect1_dropShadow_328_2408"/>
<feBlend mode="normal" in="SourceGraphic" in2="effect1_dropShadow_328_2408" result="shape"/>
</filter>
<linearGradient id="paint0_linear_328_2408" x1="42.5973" y1="0" x2="42.5973" y2="115.263" gradientUnits="userSpaceOnUse">
<stop stop-color="#E7E0E0"/>
<stop offset="1" stop-color="#D4E1FF"/>
</linearGradient>
<linearGradient id="paint1_linear_328_2408" x1="53.9113" y1="99.7891" x2="53.9113" y2="213.132" gradientUnits="userSpaceOnUse">
<stop stop-color="#F4F7FF"/>
<stop offset="1" stop-color="#C2D4FF"/>
</linearGradient>
<linearGradient id="paint2_linear_328_2408" x1="34.3516" y1="228.162" x2="142.174" y2="228.162" gradientUnits="userSpaceOnUse">
<stop stop-color="white" stop-opacity="0.9"/>
<stop offset="1" stop-color="#C2D4FF"/>
</linearGradient>
<linearGradient id="paint3_linear_328_2408" x1="52.9669" y1="222.164" x2="52.9668" y2="290.979" gradientUnits="userSpaceOnUse">
<stop stop-color="white"/>
<stop offset="1" stop-color="white" stop-opacity="0.5"/>
</linearGradient>
<linearGradient id="paint4_linear_328_2408" x1="102.636" y1="156.124" x2="102.636" y2="142.617" gradientUnits="userSpaceOnUse">
<stop stop-color="#313131"/>
<stop offset="1" stop-color="#979797"/>
</linearGradient>
<linearGradient id="paint5_linear_328_2408" x1="89.8731" y1="188.554" x2="53.3438" y2="188.554" gradientUnits="userSpaceOnUse">
<stop stop-color="#313131"/>
<stop offset="1" stop-color="#5F5353"/>
</linearGradient>
<linearGradient id="paint6_linear_328_2408" x1="179.849" y1="15" x2="179.849" y2="128.342" gradientUnits="userSpaceOnUse">
<stop stop-color="#F4F7FF"/>
<stop offset="1" stop-color="#D2E0FF"/>
</linearGradient>
<linearGradient id="paint7_linear_328_2408" x1="158.311" y1="74.875" x2="158.311" y2="89.5178" gradientUnits="userSpaceOnUse">
<stop stop-color="#313131"/>
<stop offset="1" stop-color="#979797"/>
</linearGradient>
<linearGradient id="paint8_linear_328_2408" x1="209.375" y1="97.2345" x2="181.59" y2="97.2345" gradientUnits="userSpaceOnUse">
<stop stop-color="#313131"/>
<stop offset="1" stop-color="#5F5353"/>
</linearGradient>
<linearGradient id="paint9_linear_328_2408" x1="109.035" y1="147.451" x2="216.858" y2="147.451" gradientUnits="userSpaceOnUse">
<stop stop-color="white" stop-opacity="0.9"/>
<stop offset="1" stop-color="#C2D4FF"/>
</linearGradient>
<linearGradient id="paint10_linear_328_2408" x1="119.912" y1="145.406" x2="119.912" y2="214.221" gradientUnits="userSpaceOnUse">
<stop stop-color="white"/>
<stop offset="1" stop-color="white" stop-opacity="0.5"/>
</linearGradient>
</defs>
</svg>
