<svg width="330" height="240" viewBox="0 0 330 240" fill="none" xmlns="http://www.w3.org/2000/svg">
<path d="M111.557 147.261C110.457 146.117 109.941 144.532 110.158 142.959L111.656 132.084C111.889 130.396 112.684 128.836 113.914 127.656L121.961 119.934C124.977 117.039 129.768 117.138 132.663 120.154L136.79 124.455C140.503 128.323 139.127 134.719 134.152 136.719L125.382 140.244C123.956 140.817 122.738 141.811 121.891 143.092L119.619 146.527C117.787 149.297 113.859 149.655 111.557 147.261V147.261Z" fill="#F6F6CD"/>
<path d="M234.109 139.152C233.443 140.593 232.154 141.65 230.61 142.02L219.934 144.579C218.277 144.976 216.535 144.802 214.989 144.086L204.869 139.398C201.076 137.641 199.425 133.142 201.182 129.349L203.688 123.94C205.942 119.075 212.4 118.031 216.072 121.938L222.545 128.826C223.597 129.946 224.965 130.718 226.467 131.042L230.493 131.909C233.74 132.608 235.502 136.137 234.109 139.152V139.152Z" fill="#F6F6CD"/>
<rect x="120" y="94.7734" width="107" height="43" rx="20" fill="#FFFFDE"/>
<path d="M153.066 82.5581C153.066 74.81 146.915 68.4612 139.171 68.2164L125.487 67.7839C121.066 67.6442 116.827 69.5514 113.999 72.953L110.636 76.9994C109.841 77.9551 108.926 78.8035 107.913 79.5233L101.101 84.3638C97.6945 86.7844 95.671 90.7047 95.671 94.8836V94.8836C95.671 102.011 101.449 107.789 108.576 107.789H138.718C146.642 107.789 153.066 101.365 153.066 93.44V82.5581Z" fill="#FFFFDC"/>
<rect width="44.4906" height="23.9148" rx="11.9574" transform="matrix(-0.878085 -0.478505 -0.478505 0.878085 179.035 84.2891)" fill="url(#paint0_linear_330_2551)"/>
<rect width="192" height="11" rx="5.49999" transform="matrix(-1 8.74228e-08 8.74228e-08 1 261 165.773)" fill="url(#paint1_linear_330_2551)"/>
<path d="M118.963 104.171C119.163 102.81 118.233 101.54 116.875 101.32L82.7077 95.7818C81.2911 95.5522 79.9608 96.5267 79.7526 97.9466V97.9466C79.5465 99.3515 80.5184 100.657 81.9233 100.863L97.0124 103.076L101.61 103.751C104.24 104.136 106.493 105.832 107.593 108.251L108.629 110.533C108.869 111.061 109.319 111.466 109.871 111.649L110.156 111.743C111.876 112.314 113.389 110.454 112.48 108.886V108.886C111.621 107.404 112.933 105.607 114.606 105.974L115.933 106.265C117.359 106.578 118.752 105.616 118.963 104.171V104.171Z" fill="url(#paint2_linear_330_2551)"/>
<path d="M144.306 170.48C146.814 170.483 149.185 169.336 150.74 167.369L161.496 153.766C163.166 151.654 164.074 149.041 164.074 146.349L164.074 128.731C164.074 122.127 158.721 116.773 152.117 116.773L142.7 116.773C134.23 116.773 128.445 125.337 131.607 133.195L137.183 147.048C138.089 149.3 138.288 151.774 137.755 154.142L136.324 160.487C135.17 165.606 139.059 170.474 144.306 170.48V170.48Z" fill="#FFFFDE"/>
<path d="M209.901 165.941C212.657 165.206 214.776 162.999 215.398 160.215L219.992 139.657C220.328 138.156 220.37 136.605 220.118 135.088L217.905 121.775C216.746 114.809 209.835 110.358 203.014 112.186L195.097 114.307C186.916 116.5 183.544 126.269 188.633 133.041L197.603 144.978C199.062 146.919 199.895 149.257 199.992 151.682L200.279 158.852C200.476 163.751 205.164 167.205 209.901 165.941V165.941Z" fill="#FFFFDE"/>
<circle cx="7.60924" cy="7.60924" r="7.60924" transform="matrix(-1 0 0 1 105.219 79.5156)" fill="#313131"/>
<circle cx="2.17407" cy="2.17407" r="2.17407" transform="matrix(-1 0 0 1 124.785 81.6875)" fill="#313131"/>
<path d="M241.795 98.7957C241.455 94.7664 237.363 92.1748 233.575 93.5888L230.469 94.7479C229.032 95.2844 227.478 95.4276 225.967 95.1629L221.919 94.4536C217.918 93.7525 214.336 97.0281 214.679 101.076V101.076C214.908 103.79 216.885 106.036 219.548 106.609L225.202 107.824C227.484 108.315 229.859 108.127 232.036 107.284L237.917 105.005C240.444 104.025 242.024 101.497 241.795 98.7957V98.7957Z" fill="url(#paint3_linear_330_2551)"/>
<defs>
<linearGradient id="paint0_linear_330_2551" x1="44.4906" y1="11.9574" x2="0" y2="11.9574" gradientUnits="userSpaceOnUse">
<stop stop-color="#313131"/>
<stop offset="1" stop-color="#5F5353"/>
</linearGradient>
<linearGradient id="paint1_linear_330_2551" x1="192" y1="5.49999" x2="0" y2="5.49999" gradientUnits="userSpaceOnUse">
<stop stop-color="#C2D4FF"/>
<stop offset="1" stop-color="#5F5353" stop-opacity="0.2"/>
</linearGradient>
<linearGradient id="paint2_linear_330_2551" x1="79.7874" y1="97.9606" x2="115.053" y2="103.133" gradientUnits="userSpaceOnUse">
<stop stop-color="#313131"/>
<stop offset="1" stop-color="#5F5353"/>
</linearGradient>
<linearGradient id="paint3_linear_330_2551" x1="214.533" y1="99.3556" x2="241.649" y2="97.0628" gradientUnits="userSpaceOnUse">
<stop stop-color="#313131"/>
<stop offset="1" stop-color="#5F5353"/>
</linearGradient>
</defs>
</svg>
