<svg width="330" height="240" viewBox="0 0 330 240" fill="none" xmlns="http://www.w3.org/2000/svg">
<path d="M118.948 150.398C117.969 146.474 121.006 142.7 125.048 142.816L128.361 142.91C129.894 142.954 131.412 142.588 132.756 141.849L136.358 139.871C139.919 137.916 144.366 139.86 145.349 143.802V143.802C146.008 146.445 144.862 149.209 142.526 150.611L137.568 153.586C135.566 154.787 133.257 155.376 130.925 155.28L124.623 155.022C121.915 154.911 119.604 153.028 118.948 150.398V150.398Z" fill="url(#paint0_linear_330_2553)"/>
<path d="M121.6 104.475C120.253 102.359 119.95 99.7432 120.777 97.3755L126.496 81.0034C127.383 78.4622 129.102 76.2947 131.375 74.8519L146.248 65.4077C151.823 61.8677 159.212 63.5175 162.752 69.0924L167.8 77.042C172.34 84.1926 168.211 93.6668 159.883 95.2091L145.2 97.928C142.813 98.37 140.618 99.5278 138.905 101.248L134.314 105.857C130.612 109.575 124.418 108.901 121.6 104.475V104.475Z" fill="#FFFFDE"/>
<rect width="31.8522" height="17.9841" rx="8.99206" transform="matrix(-0.610188 -0.792256 -0.792256 0.610188 183.684 33.2344)" fill="url(#paint1_linear_330_2553)"/>
<rect x="136" y="158.102" width="107" height="43" rx="20" transform="rotate(-82.5758 136 158.102)" fill="#FFFFDE"/>
<path d="M144.969 44.5581C144.969 36.81 151.12 30.4612 158.864 30.2164L172.548 29.7839C176.969 29.6442 181.208 31.5514 184.036 34.953L187.4 38.9994C188.194 39.9551 189.109 40.8035 190.122 41.5233L196.934 46.3638C200.341 48.7844 202.364 52.7047 202.364 56.8836V56.8836C202.364 64.011 196.586 69.7889 189.459 69.7889H159.318C151.393 69.7889 144.969 63.3647 144.969 55.44V44.5581Z" fill="#FFFFDC"/>
<rect x="119" y="46.2891" width="44.4906" height="23.9148" rx="11.9574" transform="rotate(-28.5878 119 46.2891)" fill="url(#paint2_linear_330_2553)"/>
<path d="M179.072 66.1709C178.872 64.8098 179.802 63.5404 181.16 63.3203L215.327 57.7818C216.744 57.5522 218.074 58.5267 218.283 59.9466V59.9466C218.489 61.3515 217.517 62.6574 216.112 62.8634L201.023 65.0765L196.425 65.7508C193.795 66.1365 191.542 67.8317 190.443 70.2513L189.406 72.5327C189.166 73.0614 188.716 73.4658 188.165 73.6486L187.879 73.7432C186.159 74.3136 184.646 72.4539 185.555 70.8857V70.8857C186.414 69.4036 185.103 67.607 183.429 67.9739L182.102 68.2649C180.676 68.5775 179.284 67.6155 179.072 66.1709V66.1709Z" fill="url(#paint3_linear_330_2553)"/>
<path d="M176.85 192.35C174.106 193.159 171.139 192.375 169.153 190.316L154.485 175.11C153.414 174 152.567 172.694 151.991 171.263L146.935 158.707C144.29 152.137 147.884 144.717 154.68 142.721L162.567 140.404C170.718 138.009 178.706 144.615 177.884 153.07L176.436 167.977C176.2 170.4 176.708 172.837 177.891 174.965L181.388 181.255C183.778 185.553 181.567 190.958 176.85 192.35V192.35Z" fill="#FFFFDE"/>
<circle cx="200.426" cy="49.1249" r="7.60924" fill="#313131"/>
<circle cx="175.424" cy="45.8616" r="2.17407" fill="#313131"/>
<path d="M154.666 104.566C153.566 103.422 153.05 101.836 153.267 100.264L154.766 89.3885C154.998 87.7005 155.794 86.1404 157.023 84.9606L165.07 77.2383C168.086 74.3438 172.878 74.4424 175.772 77.4586L179.9 81.7595C183.612 85.6281 182.236 92.0239 177.261 94.0236L168.491 97.5489C167.065 98.1219 165.848 99.1153 165 100.397L162.729 103.832C160.897 106.602 156.969 106.96 154.666 104.566V104.566Z" fill="#F6F6CD"/>
<path d="M189.563 154.95C190.323 154.16 190.802 153.142 190.926 152.052L192.811 135.413C193.222 131.781 190.979 128.373 187.481 127.315L177.568 124.318C174.843 123.494 171.887 124.268 169.916 126.322L165.405 131.023C161.299 135.301 163.484 142.424 169.282 143.665L173.976 144.67C176.303 145.168 178.261 146.731 179.261 148.891L181.435 153.588C182.911 156.774 187.129 157.482 189.563 154.95V154.95Z" fill="#FFFFDE"/>
<ellipse cx="161.5" cy="224" rx="25.5" ry="8" fill="url(#paint4_linear_330_2553)"/>
<defs>
<linearGradient id="paint0_linear_330_2553" x1="144.931" y1="142.127" x2="118.527" y2="148.71" gradientUnits="userSpaceOnUse">
<stop stop-color="#313131"/>
<stop offset="1" stop-color="#5F5353"/>
</linearGradient>
<linearGradient id="paint1_linear_330_2553" x1="15.9261" y1="0" x2="15.9261" y2="17.9841" gradientUnits="userSpaceOnUse">
<stop stop-color="#313131"/>
<stop offset="1" stop-color="#979797"/>
</linearGradient>
<linearGradient id="paint2_linear_330_2553" x1="163.491" y1="58.2464" x2="119" y2="58.2464" gradientUnits="userSpaceOnUse">
<stop stop-color="#313131"/>
<stop offset="1" stop-color="#5F5353"/>
</linearGradient>
<linearGradient id="paint3_linear_330_2553" x1="218.248" y1="59.9606" x2="182.982" y2="65.1329" gradientUnits="userSpaceOnUse">
<stop stop-color="#313131"/>
<stop offset="1" stop-color="#5F5353"/>
</linearGradient>
<linearGradient id="paint4_linear_330_2553" x1="136" y1="224" x2="187" y2="224" gradientUnits="userSpaceOnUse">
<stop stop-color="#C2D4FF"/>
<stop offset="1" stop-color="#5F5353" stop-opacity="0.2"/>
</linearGradient>
</defs>
</svg>
