<svg width="330" height="240" viewBox="0 0 330 240" fill="none" xmlns="http://www.w3.org/2000/svg">
<rect x="127" y="94.6094" width="107" height="43" rx="20" fill="#FFFFDE"/>
<path d="M135.066 112.168C135.066 104.419 128.915 98.0706 121.171 97.8258L107.487 97.3933C103.066 97.2536 98.8272 99.1608 95.9995 102.562L92.6356 106.609C91.8412 107.564 90.926 108.413 89.913 109.133L83.101 113.973C79.6945 116.394 77.671 120.314 77.671 124.493V124.493C77.671 131.62 83.4489 137.398 90.5763 137.398H120.718C128.642 137.398 135.066 130.974 135.066 123.049V112.168Z" fill="#FFFFDC"/>
<rect width="198" height="11" rx="5.49999" transform="matrix(-1 8.74228e-08 8.74228e-08 1 264 137.609)" fill="url(#paint0_linear_330_2554)"/>
<path d="M104.004 138.378C104.002 135.87 105.148 133.499 107.115 131.943L120.719 121.187C122.83 119.518 125.443 118.609 128.135 118.609L145.754 118.609C152.357 118.609 157.711 123.963 157.711 130.567L157.711 132.152C157.711 138.756 152.357 144.109 145.754 144.109L125.31 144.109C124.425 144.109 123.543 144.208 122.68 144.402L113.997 146.359C108.878 147.513 104.01 143.625 104.004 138.378V138.378Z" fill="#F6F6CD"/>
<path d="M193.003 137.424C193.001 135.418 193.918 133.521 195.492 132.276L206.375 123.672C208.064 122.336 210.155 121.609 212.308 121.609L226.403 121.609C231.686 121.609 235.969 125.892 235.969 131.175L235.969 132.443C235.969 137.727 231.686 142.009 226.403 142.009L210.048 142.009C209.34 142.009 208.635 142.088 207.944 142.244L200.998 143.809C196.903 144.732 193.008 141.621 193.003 137.424V137.424Z" fill="#F6F6CD"/>
<circle cx="7.60924" cy="7.60924" r="7.60924" transform="matrix(-1 0 0 1 87.2188 109.125)" fill="#313131"/>
<ellipse cx="2.5" cy="1" rx="2.5" ry="1" transform="matrix(-1 0 0 1 107.109 111.297)" fill="#313131"/>
<path d="M247.25 109.984C245.602 113.677 240.885 114.777 237.773 112.195L235.223 110.078C234.042 109.098 232.622 108.451 231.107 108.204L227.052 107.541C223.043 106.886 220.739 102.614 222.395 98.9048V98.9048C223.505 96.417 226.111 94.947 228.814 95.283L234.553 95.9963C236.869 96.2842 239.051 97.2437 240.828 98.7566L245.631 102.845C247.696 104.601 248.355 107.509 247.25 109.984V109.984Z" fill="url(#paint1_linear_330_2554)"/>
<rect width="44.4906" height="23.9148" rx="11.9574" transform="matrix(-0.878085 -0.478505 -0.478505 0.878085 161.035 113.898)" fill="url(#paint2_linear_330_2554)"/>
<defs>
<linearGradient id="paint0_linear_330_2554" x1="198" y1="5.49999" x2="0" y2="5.49999" gradientUnits="userSpaceOnUse">
<stop stop-color="#C2D4FF"/>
<stop offset="1" stop-color="#5F5353" stop-opacity="0.2"/>
</linearGradient>
<linearGradient id="paint1_linear_330_2554" x1="221.691" y1="100.481" x2="246.541" y2="111.572" gradientUnits="userSpaceOnUse">
<stop stop-color="#313131"/>
<stop offset="1" stop-color="#5F5353"/>
</linearGradient>
<linearGradient id="paint2_linear_330_2554" x1="44.4906" y1="11.9574" x2="0" y2="11.9574" gradientUnits="userSpaceOnUse">
<stop stop-color="#313131"/>
<stop offset="1" stop-color="#5F5353"/>
</linearGradient>
</defs>
</svg>
