<svg width="330" height="240" viewBox="0 0 330 240" fill="none" xmlns="http://www.w3.org/2000/svg">
<path d="M111 67H210L222.776 114.697C223.978 119.183 221.12 123.746 216.559 124.623L178.885 131.868C166.409 134.267 153.591 134.267 141.115 131.868L103.582 124.65C98.9701 123.763 96.1107 119.113 97.401 114.597L111 67Z" fill="#E3E3E3"/>
<ellipse cx="160.5" cy="67.5" rx="49.5" ry="13.5" fill="url(#paint0_linear_330_2552)"/>
<ellipse cx="203.334" cy="156.596" rx="8.31009" ry="6.79917" fill="#E3E3E3"/>
<ellipse cx="203.163" cy="145.335" rx="2.85397" ry="2.33507" fill="#E3E3E3"/>
<ellipse cx="194.854" cy="147.601" rx="2.85397" ry="2.33507" fill="#E3E3E3"/>
<ellipse cx="211.475" cy="147.601" rx="2.85397" ry="2.33507" fill="#E3E3E3"/>
<ellipse cx="240" cy="178" rx="11" ry="9" fill="#E3E3E3"/>
<ellipse cx="239.778" cy="163.091" rx="3.77778" ry="3.09091" fill="#E3E3E3"/>
<ellipse cx="228.778" cy="166.091" rx="3.77778" ry="3.09091" fill="#E3E3E3"/>
<ellipse cx="250.778" cy="166.091" rx="3.77778" ry="3.09091" fill="#E3E3E3"/>
<path d="M174.5 96C176.985 96 179 98.0147 179 100.5V102.5C179 103.914 178.347 105.175 177.327 106C178.347 106.825 179 108.086 179 109.5V111.5C179 113.985 176.985 116 174.5 116C172.175 116 170.261 114.236 170.024 111.974C169.852 111.99 169.677 112 169.5 112H151.5C150.976 112 150.469 111.925 149.989 111.788C149.841 114.139 147.888 116 145.5 116C143.015 116 141 113.985 141 111.5V109.5C141 108.086 141.652 106.825 142.672 106C141.652 105.175 141 103.914 141 102.5V100.5C141 98.0147 143.015 96 145.5 96C147.985 96 150 98.0147 150 100.5V101.208C150.477 101.073 150.98 101 151.5 101H169.5C169.669 101 169.835 101.009 170 101.023V100.5C170 98.0147 172.015 96 174.5 96Z" fill="white"/>
<defs>
<linearGradient id="paint0_linear_330_2552" x1="132" y1="54" x2="191.5" y2="95" gradientUnits="userSpaceOnUse">
<stop stop-color="#BCBCBC"/>
<stop offset="1" stop-color="#E3E3E3"/>
</linearGradient>
</defs>
</svg>
